<?xml version="1.0" encoding="utf-8" standalone="no"?><!DOCTYPE svg PUBLIC "-//W3C//DTD SVG 1.1//EN"
  "http://www.w3.org/Graphics/SVG/1.1/DTD/svg11.dtd"><svg xmlns:xlink="http://www.w3.org/1999/xlink" width="691.2pt" height="460.8pt" viewBox="0 0 691.2 460.8" xmlns="http://www.w3.org/2000/svg" version="1.1"><metadata><rdf:RDF xmlns:dc="http://purl.org/dc/elements/1.1/" xmlns:cc="http://creativecommons.org/ns#" xmlns:rdf="http://www.w3.org/1999/02/22-rdf-syntax-ns#"><cc:Work><dc:type rdf:resource="http://purl.org/dc/dcmitype/StillImage"/><dc:format>image/svg+xml</dc:format><dc:creator><cc:Agent><dc:title>Matplotlib v3.11.2, https://matplotlib.org/</dc:title></cc:Agent></dc:creator></cc:Work></rdf:RDF></metadata><defs><style type="text/css">*{stroke-linejoin: round; stroke-linecap: butt}</style></defs><g id="figure_1"><g id="patch_1"><path d="m0 460.8l691.2 0l0-460.8l-691.2 0z" style="fill: #ffffff"/></g><g id="axes_1"><g id="patch_2"><path d="m567.52 40.32l89.12 0l0 18.72l-89.12 0z" clip-path="url(#pa6bc4535b7)" style="fill: #f5f6f8; stroke: #d3d7de; stroke-width: 0.72; stroke-linejoin: miter"/></g><g id="patch_3"><path d="m604.74 84.24l8.64 0l0 8.64l-8.64 0z" clip-path="url(#pa6bc4535b7)" style="fill: #0b0f1a"/></g><g id="patch_4"><path d="m559.88 84.24l8.64 0l0 8.64l-8.64 0z" clip-path="url(#pa6bc4535b7)" style="fill: #8a94a6"/></g><g id="patch_5"><path d="m514.64 84.24l8.64 0l0 8.64l-8.64 0z" clip-path="url(#pa6bc4535b7)" style="fill: #ffffff; stroke: #d3d7de; stroke-width: 0.72; stroke-linejoin: miter"/></g><g id="patch_6"><path d="m460.04 84.24l8.64 0l0 8.64l-8.64 0z" clip-path="url(#pa6bc4535b7)" style="fill: #c7d0de"/></g><g id="patch_7"><path d="m384.41 84.24l8.64 0l0 8.64l-8.64 0z" clip-path="url(#pa6bc4535b7)" style="fill: #475569"/></g><g id="patch_8"><path d="m278.42 113.76l8.5 0l0 17.28l-8.5 0z" clip-path="url(#pa6bc4535b7)" style="fill: #475569"/></g><g id="patch_9"><path d="m288.36 113.76l28.37 0l0 17.28l-28.37 0z" clip-path="url(#pa6bc4535b7)" style="fill: #c7d0de"/></g><g id="patch_10"><path d="m318.17 113.76l54.86 0l0 17.28l-54.86 0z" clip-path="url(#pa6bc4535b7)" style="fill: #ffffff; stroke: #d3d7de; stroke-width: 0.72; stroke-linejoin: miter"/></g><g id="patch_11"><path d="m374.47 113.76l150.91 0l0 17.28l-150.91 0z" clip-path="url(#pa6bc4535b7)" style="fill: #8a94a6"/></g><g id="patch_12"><path d="m526.82 113.76l81.36 0l0 17.28l-81.36 0z" clip-path="url(#pa6bc4535b7)" style="fill: #0b0f1a"/></g><g id="patch_13"><path d="m245.3 145.44l15.12 0l0 17.28l-15.12 0z" clip-path="url(#pa6bc4535b7)" style="fill: #475569"/></g><g id="patch_14"><path d="m261.86 145.44l44.93 0l0 17.28l-44.93 0z" clip-path="url(#pa6bc4535b7)" style="fill: #c7d0de"/></g><g id="patch_15"><path d="m308.23 145.44l74.74 0l0 17.28l-74.74 0z" clip-path="url(#pa6bc4535b7)" style="fill: #ffffff; stroke: #d3d7de; stroke-width: 0.72; stroke-linejoin: miter"/></g><g id="patch_16"><path d="m384.41 145.44l134.35 0l0 17.28l-134.35 0z" clip-path="url(#pa6bc4535b7)" style="fill: #8a94a6"/></g><g id="patch_17"><path d="m520.2 145.44l54.86 0l0 17.28l-54.86 0z" clip-path="url(#pa6bc4535b7)" style="fill: #0b0f1a"/></g><g id="patch_18"><path d="m250.27 177.12l11.81 0l0 17.28l-11.81 0z" clip-path="url(#pa6bc4535b7)" style="fill: #475569"/></g><g id="patch_19"><path d="m263.52 177.12l38.3 0l0 17.28l-38.3 0z" clip-path="url(#pa6bc4535b7)" style="fill: #c7d0de"/></g><g id="patch_20"><path d="m303.26 177.12l84.68 0l0 17.28l-84.68 0z" clip-path="url(#pa6bc4535b7)" style="fill: #ffffff; stroke: #d3d7de; stroke-width: 0.72; stroke-linejoin: miter"/></g><g id="patch_21"><path d="m389.38 177.12l137.66 0l0 17.28l-137.66 0z" clip-path="url(#pa6bc4535b7)" style="fill: #8a94a6"/></g><g id="patch_22"><path d="m528.48 177.12l51.55 0l0 17.28l-51.55 0z" clip-path="url(#pa6bc4535b7)" style="fill: #0b0f1a"/></g><g id="patch_23"><path d="m193.97 208.8l31.68 0l0 17.28l-31.68 0z" clip-path="url(#pa6bc4535b7)" style="fill: #475569"/></g><g id="patch_24"><path d="m227.09 208.8l68.11 0l0 17.28l-68.11 0z" clip-path="url(#pa6bc4535b7)" style="fill: #c7d0de"/></g><g id="patch_25"><path d="m296.64 208.8l97.92 0l0 17.28l-97.92 0z" clip-path="url(#pa6bc4535b7)" style="fill: #ffffff; stroke: #d3d7de; stroke-width: 0.72; stroke-linejoin: miter"/></g><g id="patch_26"><path d="m396 208.8l97.92 0l0 17.28l-97.92 0z" clip-path="url(#pa6bc4535b7)" style="fill: #8a94a6"/></g><g id="patch_27"><path d="m495.36 208.8l28.37 0l0 17.28l-28.37 0z" clip-path="url(#pa6bc4535b7)" style="fill: #0b0f1a"/></g><g id="patch_28"><path d="m266.83 240.48l11.81 0l0 17.28l-11.81 0z" clip-path="url(#pa6bc4535b7)" style="fill: #475569"/></g><g id="patch_29"><path d="m280.08 240.48l31.68 0l0 17.28l-31.68 0z" clip-path="url(#pa6bc4535b7)" style="fill: #c7d0de"/></g><g id="patch_30"><path d="m313.2 240.48l64.8 0l0 17.28l-64.8 0z" clip-path="url(#pa6bc4535b7)" style="fill: #ffffff; stroke: #d3d7de; stroke-width: 0.72; stroke-linejoin: miter"/></g><g id="patch_31"><path d="m379.44 240.48l144.29 0l0 17.28l-144.29 0z" clip-path="url(#pa6bc4535b7)" style="fill: #8a94a6"/></g><g id="patch_32"><path d="m525.17 240.48l71.42 0l0 17.28l-71.42 0z" clip-path="url(#pa6bc4535b7)" style="fill: #0b0f1a"/></g><g id="patch_33"><path d="m34.56 305.28l622.08 0l0 18.72l-622.08 0z" clip-path="url(#pa6bc4535b7)" style="fill: #f5f6f8"/></g><g id="line2d_1"><path d="m34.56 28.8l622.08 0" clip-path="url(#pa6bc4535b7)" style="fill: none; stroke: #0b0f1a; stroke-width: 1.44"/></g><g id="line2d_2"><path d="m34.56 66.24l622.08 0" clip-path="url(#pa6bc4535b7)" style="fill: none; stroke: #d3d7de; stroke-width: 0.72"/></g><g id="line2d_3"><path d="m34.56 408.96l622.08 0" clip-path="url(#pa6bc4535b7)" style="fill: none; stroke: #d3d7de; stroke-width: 0.72"/></g><g id="line2d_4"><path d="m345.6 108l0 152.64" clip-path="url(#pa6bc4535b7)" style="fill: none; stroke: #475569; stroke-width: 0.72"/></g><g id="line2d_5"><path d="m34.56 227.52l51.84 0" clip-path="url(#pa6bc4535b7)" style="fill: none; stroke: #db3b17; stroke-width: 1.44"/></g><g id="line2d_6"><path d="m34.56 276.48l622.08 0" clip-path="url(#pa6bc4535b7)" style="fill: none; stroke: #d3d7de; stroke-width: 0.72"/></g><g id="line2d_7"><path d="m34.56 324l622.08 0" clip-path="url(#pa6bc4535b7)" style="fill: none; stroke: #0b0f1a; stroke-width: 0.72"/></g><g id="line2d_8"><path d="m34.56 347.04l622.08 0" clip-path="url(#pa6bc4535b7)" style="fill: none; stroke: #d3d7de; stroke-width: 0.72"/></g><g id="line2d_9"><path d="m34.56 368.64l622.08 0" clip-path="url(#pa6bc4535b7)" style="fill: none; stroke: #d3d7de; stroke-width: 0.72"/></g><g id="text_1"><g style="fill: #6b7280" transform="translate(34.56 54.72) scale(1.728 -1.728)"><defs><path id="PretendardDILSemiBold-35f4" d="m272 249l-226 0l0 35l226 0l0-35zm61-235l-321 0l0 35l321 0l0-35zm-40 230q0-32-1-54q-1-23-3-52q-3-29-9-64l-44 4q6 32 9 61q3 29 4 51q0 23 0 54l0 40l44 0l0-40z" transform="scale(0.015625)"/><path id="PretendardDILSemiBold-347f" d="m306 109l-44 0l0 209l44 0l0-209zm-245 49q55 0 92 2q36 2 74 8l5-35q-39-6-78-8q-38-3-93-3l-31 0l0 36l31 0zm131 37l-119 0l0-59l-43 0l0 92l119 0l0 35l-119 0l0 34l162 0l0-102zm114-225l-234 0l0 122l234 0l0-122zm-192 35l149 0l0 52l-149 0l0-52z" transform="scale(0.015625)"/><path id="PretendardDILSemiBold-364f" transform="scale(0.015625)"/><path id="PretendardDILSemiBold-3704" d="m126-4q-30 0-53 10q-24 10-37 29q-14 18-14 42l51 0q1-11 8-20q7-8 19-13q12-5 26-5q15 0 28 5q12 6 19 15q7 10 7 22q0 13-7 23q-7 10-20 15q-14 6-32 6l-25 0l0 39l25 0q15 0 27 5q11 6 18 15q6 9 6 22q0 11-6 20q-5 10-15 14q-11 6-24 6q-13 0-25-5q-11-5-18-14q-7-8-8-20l-49 0q1 23 14 41q13 18 36 29q22 10 50 10q28 0 49-11q22-10 34-28q12-18 11-40q1-15-6-28q-6-13-18-21q-12-8-28-12l0-2q20-2 34-11q14-10 22-24q7-14 7-32q0-23-14-42q-13-18-37-29q-25-11-55-11z" transform="scale(0.015625)"/><path id="PretendardDILSemiBold-3741" d="m152 97l-127 0l0 41l127 0l0-41z" transform="scale(0.015625)"/><path id="PretendardDILSemiBold-3705" d="m18 93l122 190l34 0l0-58l-21 0l-83-128l0-3l171 0l0-41l-223 0l0 40zm138-28l0 18l0 200l48 0l0-283l-48 0l0 65z" transform="scale(0.015625)"/></defs><use xlink:href="#PretendardDILSemiBold-35f4"/><use xlink:href="#PretendardDILSemiBold-347f" transform="translate(5.4 0)"/><use xlink:href="#PretendardDILSemiBold-364f" transform="translate(10.8 0)"/><use xlink:href="#PretendardDILSemiBold-3704" transform="translate(12.29 0)"/><use xlink:href="#PretendardDILSemiBold-3741" transform="translate(16.24 0)"/><use xlink:href="#PretendardDILSemiBold-3705" transform="translate(19.01 0)"/></g></g><g id="text_2"><g style="fill: #0b0f1a" transform="translate(100.8 54.72) scale(2.5344 -2.5344)"><defs><path id="PretendardDILBold-3603" d="m192 119l-171 0l0 171l171 0l0-171zm-122 40l73 0l0 91l-73 0l0-91zm223-99l-50 0l0 259l50 0l0-259zm48 116l-63 0l0 41l63 0l0-41zm-36-206l-243 0l0 40l243 0l0-40zm-193 20l-50 0l0 96l50 0l0-96z" transform="scale(0.015625)"/><path id="PretendardDILBold-3430" d="m182 278q0-28-16-50q-16-23-48-38q-31-15-76-19l-17 39q37 3 62 14q26 10 39 24q12 14 12 30l0 10l44 0l0-10zm25 0q0-16 12-30q13-14 39-24q26-11 63-14l-18-39q-44 4-76 19q-32 15-48 38q-17 22-17 50l0 10l45 0l0-10zm99-11l-266 0l0 40l266 0l0-40zm29-160l-324 0l0 39l324 0l0-39zm-138 22l-50 0l0 64l50 0l0-64zm98-165l-49 0l0 77l-200 0l0 40l249 0l0-117z" transform="scale(0.015625)"/><path id="PretendardDILBold-35fa" d="m300 121l-251 0l0 40l251 0l0-40zm36-117l-325 0l0 41l325 0l0-41zm-139 28l-49 0l0 110l49 0l0-110zm101 223l-199 0l0-112l-50 0l0 151l249 0l0-39z" transform="scale(0.015625)"/><path id="PretendardDILBold-364f" transform="scale(0.015625)"/><path id="PretendardDILBold-3609" d="m335 104l-325 0l0 40l325 0l0-40zm-133-61l-49 0l0 76l49 0l0-76zm92 130l-243 0l0 131l243 0l0-131zm-194 39l145 0l0 53l-145 0l0-53zm200-242l-252 0l0 40l252 0l0-40zm-202 27l-50 0l0 77l50 0l0-77z" transform="scale(0.015625)"/><path id="PretendardDILBold-34b5" d="m293 94l-50 0l0 226l50 0l0-226zm48 93l-63 0l0 42l63 0l0-42zm-165-96q37 0 64-8q27-8 42-22q14-14 14-34q0-19-14-34q-15-14-42-21q-27-8-64-8q-37 0-64 8q-27 7-41 21q-15 15-15 34q0 20 15 34q14 15 41 22q27 8 64 8zm0-38q-23 0-39-3q-15-3-23-9q-8-5-8-14q0-8 8-14q8-6 23-9q16-3 39-3q23 0 39 3q15 3 23 9q8 6 8 14q0 9-8 14q-7 6-23 9q-15 3-39 3zm46 194l-212 0l0 39l212 0l0-39zm-106-12q26 0 46-8q19-8 31-23q11-15 11-33q0-19-11-33q-12-15-31-23q-20-8-46-8q-26 0-46 8q-20 8-31 23q-11 14-11 33q0 18 11 33q11 15 31 23q20 8 46 8zm0-37q-12 0-21-3q-9-3-14-9q-5-6-5-15q0-9 5-15q5-6 14-9q9-3 21-3q12 0 21 3q9 3 14 9q5 6 5 15q0 9-5 15q-5 6-14 9q-9 3-21 3zm25 66l-50 0l0 58l50 0l0-58z" transform="scale(0.015625)"/><path id="PretendardDILBold-348a" d="m272 237l-89 0l0 37l89 0l0-37zm0-65l-89 0l0 38l89 0l0-38zm38-35l-49 0l0 183l49 0l0-183zm0-109l-186 0l0-46l-50 0l0 83l187 0l0 20l-188 0l0 38l237 0l0-95zm10-60l-246 0l0 39l246 0l0-39zm-244 295l70 0l0 41l49 0l0-157l-169 0l0 157l50 0l0-41zm70-77l0 39l-70 0l0-39l70 0z" transform="scale(0.015625)"/><path id="PretendardDILBold-33a7" d="m335 114l-324 0l0 39l324 0l0-39zm-163-20q39 0 67-7q27-8 42-22q15-15 15-36q0-21-15-35q-15-15-42-23q-28-7-67-7q-39 0-67 7q-27 8-42 23q-15 14-15 35q0 21 14 36q15 14 43 22q28 7 67 7zm0-38q-25 0-41-2q-16-3-24-9q-9-7-9-16q0-9 9-15q8-6 24-9q16-3 41-3q25 0 41 3q17 3 25 9q8 6 8 15q0 9-8 16q-8 6-25 9q-16 2-41 2zm1 256q39 0 68-8q29-9 45-24q16-16 16-38q0-21-16-37q-16-16-45-24q-29-8-68-8q-39 0-69 8q-29 8-45 24q-16 16-16 37q0 22 16 38q16 15 45 24q30 8 69 8zm0-39q-25 0-43-3q-17-3-26-10q-9-7-9-18q0-10 9-17q9-7 26-10q17-4 43-4q25 0 42 4q17 3 26 10q9 7 9 17q0 11-9 18q-9 7-26 10q-17 3-42 3z" transform="scale(0.015625)"/><path id="PretendardDILBold-33f8" d="m293 129l-50 0l0 191l50 0l0-191zm48 73l-63 0l0 41l63 0l0-41zm-287-24q62 0 95 2q33 2 65 9l5-40q-33-7-68-9q-35-2-97-2l-30 0l0 40l30 0zm129 80l-109 0l0-107l-50 0l0 147l159 0l0-40zm-74-179l134 0l0 33l50 0l0-143l-234 0l0 143l50 0l0-33zm134-71l0 32l-134 0l0-32l134 0z" transform="scale(0.015625)"/><path id="PretendardDILBold-3504" d="m335 98l-325 0l0 39l325 0l0-39zm-133-57l-49 0l0 75l49 0l0-75zm98-71l-252 0l0 40l252 0l0-40zm-202 23l-50 0l0 76l50 0l0-76zm3 278l143 0l0 37l49 0l0-146l-241 0l0 146l49 0l0-37zm143-70l0 33l-143 0l0-33l143 0z" transform="scale(0.015625)"/><path id="PretendardDILBold-3642" d="m336 4l-325 0l0 41l325 0l0-41zm-139 22l-50 0l0 101l50 0l0-101zm112 224l-273 0l0 40l273 0l0-40zm-2-141l-269 0l0 39l269 0l0-39zm-172 35l-50 0l0 114l50 0l0-114zm124 0l-49 0l0 114l49 0l0-114z" transform="scale(0.015625)"/><path id="PretendardDILBold-3516" d="m142 56l-50 0l0 84l50 0l0-84zm-25 242q27 0 49-11q22-11 35-31q13-20 13-45q0-25-13-45q-13-20-35-31q-22-11-49-11q-28 0-51 11q-22 11-34 31q-13 20-13 45q0 25 13 45q12 20 34 31q23 11 51 11zm0-42q-15 0-26-5q-11-5-17-16q-6-10-6-24q0-13 6-23q6-11 17-16q12-6 26-6q13 0 24 6q11 5 17 16q7 10 7 23q0 14-7 24q-6 10-17 16q-11 5-24 5zm176-292l-50 0l0 356l50 0l0-356zm48 174l-63 0l0 42l63 0l0-42zm-335-62q50 0 80 0q31 1 68 3q37 2 70 6l3-36q-34-7-71-10q-37-3-70-3q-33-1-73-1l-7 41z" transform="scale(0.015625)"/><path id="PretendardDILBold-34e0" d="m269 249l-226 0l0 40l226 0l0-40zm66-241l-324 0l0 40l324 0l0-40zm-206 27l-49 0l0 125l49 0l0-125zm176 219q0-30 0-51q-1-22-4-51q-3-29-9-62l-49 5q6 31 9 59q2 28 3 50q1 21 1 50l0 35l49 0l0-35zm-87-219l-49 0l0 125l49 0l0-125z" transform="scale(0.015625)"/><path id="PretendardDILBold-351f" d="m129 208q0-38-11-74q-12-35-34-63q-22-27-53-41l-27 39q28 12 47 35q19 22 29 49q10 27 10 55l0 20l39 0l0-20zm10 0q0-26 9-52q9-26 28-47q19-22 46-35l-28-38q-30 14-51 41q-21 27-32 61q-11 34-11 70l0 20l39 0l0-20zm73 14l-196 0l0 40l196 0l0-40zm-73 19l-50 0l0 71l50 0l0-71zm152-277l-50 0l0 356l50 0l0-356zm53 176l-64 0l0 42l64 0l0-42z" transform="scale(0.015625)"/><path id="PretendardDILBold-3531" d="m141 30l-50 0l0 97l50 0l0-97zm112 0l-49 0l0 96l49 0l0-96zm83-26l-325 0l0 39l325 0l0-39zm-27 247l-273 0l0 40l273 0l0-40zm-2-140l-269 0l0 40l269 0l0-40zm-172 34l-50 0l0 113l50 0l0-113zm124 0l-49 0l0 113l49 0l0-113z" transform="scale(0.015625)"/></defs><use xlink:href="#PretendardDILBold-3603"/><use xlink:href="#PretendardDILBold-3430" transform="translate(5.4 0)"/><use xlink:href="#PretendardDILBold-35fa" transform="translate(10.8 0)"/><use xlink:href="#PretendardDILBold-364f" transform="translate(16.2 0)"/><use xlink:href="#PretendardDILBold-3609" transform="translate(17.65 0)"/><use xlink:href="#PretendardDILBold-34b5" transform="translate(23.05 0)"/><use xlink:href="#PretendardDILBold-348a" transform="translate(28.45 0)"/><use xlink:href="#PretendardDILBold-364f" transform="translate(33.85 0)"/><use xlink:href="#PretendardDILBold-33a7" transform="translate(35.29 0)"/><use xlink:href="#PretendardDILBold-33f8" transform="translate(40.7 0)"/><use xlink:href="#PretendardDILBold-364f" transform="translate(46.1 0)"/><use xlink:href="#PretendardDILBold-3504" transform="translate(47.54 0)"/><use xlink:href="#PretendardDILBold-3642" transform="translate(52.94 0)"/><use xlink:href="#PretendardDILBold-3516" transform="translate(58.34 0)"/><use xlink:href="#PretendardDILBold-364f" transform="translate(63.75 0)"/><use xlink:href="#PretendardDILBold-34e0" transform="translate(65.19 0)"/><use xlink:href="#PretendardDILBold-351f" transform="translate(70.59 0)"/><use xlink:href="#PretendardDILBold-3531" transform="translate(75.99 0)"/></g></g><g id="text_3"><g style="fill: #475569" transform="translate(34.56 426.24) scale(1.728 -1.728)"><defs><path id="PretendardDILRegular-3638" d="m182 266q0-29-20-54q-19-25-50-42q-32-16-67-23l-12 25q30 4 59 18q28 14 46 34q17 20 17 42l0 15l27 0l0-15zm7 0q0-22 18-42q18-20 46-34q28-14 59-18l-12-25q-36 7-67 23q-31 16-51 42q-19 25-19 54l0 15l26 0l0-15zm-2-298l-30 0l0 133l30 0l0-133zm143 124l-316 0l0 26l316 0l0-26zm-30 177l-256 0l0 25l256 0l0-25z" transform="scale(0.015625)"/><path id="PretendardDILRegular-3724" d="m51-2q-7 0-13 3q-6 4-9 10q-3 5-3 12q0 7 3 13q3 5 9 9q6 3 13 3q6 0 12-3q6-4 9-9q4-6 4-13q0-7-4-12q-3-6-9-10q-6-3-12-3z" transform="scale(0.015625)"/><path id="PretendardDILRegular-364f" transform="scale(0.015625)"/><path id="PretendardDILRegular-3696" d="m61 0l-34 0l0 212l32 0l0-33l3 0q8 17 24 27q15 9 38 9q22 0 38-9q16-9 25-27q9-18 9-44l0-135l-34 0l0 132q0 17-6 28q-5 12-16 18q-11 7-26 7q-16 0-28-7q-12-6-19-20q-6-13-6-31l0-127z" transform="scale(0.015625)"/><path id="PretendardDILRegular-33d9" d="m40 167l171 0l0-31l-171 0l0 31zm0-82l171 0l0-31l-171 0l0 31z" transform="scale(0.015625)"/><path id="PretendardDILRegular-3709" d="m121-4q-29 0-52 10q-23 10-36 28q-12 18-12 41q0 18 7 34q8 15 21 25q13 11 29 13l0 1q-14 4-24 13q-11 9-16 22q-6 13-6 29q0 21 11 38q12 18 32 27q21 10 46 10q25 0 46-10q21-9 32-27q12-17 12-38q0-16-6-29q-6-13-17-22q-10-9-24-13l0-1q16-2 29-13q13-10 21-25q8-16 8-34q0-23-13-41q-13-18-36-28q-23-10-52-10zm0 31q20 0 35 6q15 6 23 18q8 11 8 26q0 16-9 28q-8 12-23 19q-15 7-34 7q-19 0-34-7q-15-7-23-19q-8-12-8-28q0-15 8-26q8-12 22-18q15-6 35-6zm0 134q16 0 29 6q12 6 20 17q7 11 7 25q0 14-7 25q-7 11-20 16q-12 6-29 6q-16 0-29-6q-13-5-20-16q-6-11-6-25q0-14 7-25q7-11 20-17q12-6 28-6z" transform="scale(0.015625)"/><path id="PretendardDILRegular-3701" d="m119-4q-31 0-53 17q-22 17-34 50q-12 32-12 78q0 46 12 79q12 32 34 50q22 17 53 17q31 0 53-17q23-18 34-50q12-33 12-79q0-46-12-78q-11-33-33-50q-23-17-54-17zm0 31q20 0 35 14q14 13 22 39q8 25 8 61q0 37-8 63q-8 25-22 39q-15 13-35 13q-20 0-35-13q-14-14-22-39q-8-26-8-63q0-36 8-61q8-26 22-39q15-14 35-14z" transform="scale(0.015625)"/><path id="PretendardDILRegular-360f" d="m332 84l-318 0l0 25l318 0l0-25zm-145-116l-30 0l0 130l30 0l0-130zm-102 285l175 0l0 48l31 0l0-149l-237 0l0 149l31 0l0-48zm175-76l0 51l-175 0l0-51l175 0z" transform="scale(0.015625)"/><path id="PretendardDILRegular-3635" d="m280 200l-79 0l0 25l79 0l0-25zm22-91l-31 0l0 207l31 0l0-207zm-115-11q36 0 62-8q26-8 40-22q14-14 14-35q0-20-14-35q-14-14-40-22q-26-7-62-8q-36 1-62 8q-27 8-41 22q-14 15-14 35q0 21 14 35q14 14 41 22q26 8 62 8zm0-24q-26 0-46-5q-19-5-30-14q-10-9-10-22q0-12 10-21q11-9 30-14q20-5 46-5q26 0 46 5q19 5 29 14q11 9 11 21q0 13-11 22q-10 9-29 14q-20 5-46 5zm-58 178q0-32-12-60q-13-28-35-48q-22-21-50-32l-16 24q25 10 46 27q20 18 31 41q11 23 11 48l0 28l25 0l0-28zm6 0q0-22 11-43q10-21 30-38q19-16 44-25l-16-24q-28 10-49 29q-21 20-33 46q-12 26-12 55l0 28l25 0l0-28zm77 12l-187 0l0 26l187 0l0-26z" transform="scale(0.015625)"/><path id="PretendardDILRegular-34fb" d="m312-32l-30 0l0 348l30 0l0-348zm-19 184l-68 0l0 26l68 0l0-26zm-59-166l-30 0l0 322l30 0l0-322zm-74 76l-133 0l0 213l133 0l0-213zm-104 24l75 0l0 164l-75 0l0-164z" transform="scale(0.015625)"/><path id="PretendardDILRegular-3624" d="m332 91l-318 0l0 25l318 0l0-25zm-145-123l-30 0l0 133l30 0l0-133zm-15 334q36 0 64-10q28-9 43-26q15-18 15-41q0-23-15-40q-15-17-43-26q-28-9-64-9q-36 0-64 9q-28 9-43 26q-15 17-15 40q0 23 15 41q15 17 43 26q28 10 64 10zm0-25q-27 0-48-7q-20-6-31-18q-12-11-12-27q0-15 12-27q11-11 31-18q21-6 48-6q27 0 48 6q20 7 32 18q11 12 11 27q0 16-11 27q-12 12-32 18q-21 7-48 7z" transform="scale(0.015625)"/><path id="PretendardDILRegular-348c" d="m187 95l-30 0l0 54l30 0l0-54zm-100 182l172 0l0 33l30 0l0-114l-233 0l0 114l31 0l0-33zm172-57l0 33l-172 0l0-33l172 0zm71-79l-316 0l0 26l316 0l0-26zm-40-111l-206 0l0-43l-31 0l0 66l207 0l0 31l-208 0l0 23l238 0l0-77zm10-58l-247 0l0 24l247 0l0-24z" transform="scale(0.015625)"/><path id="PretendardDILRegular-3603" d="m189 124l-160 0l0 160l160 0l0-160zm-130 25l101 0l0 110l-101 0l0-110zm227-88l-31 0l0 255l31 0l0-255zm52 123l-62 0l0 26l62 0l0-26zm-36-208l-234 0l0 26l234 0l0-26zm-204 15l-30 0l0 94l30 0l0-94z" transform="scale(0.015625)"/><path id="PretendardDILRegular-3430" d="m180 277q0-27-19-49q-19-21-50-35q-31-14-68-19l-11 24q31 4 59 15q28 12 45 28q16 17 16 36l0 11l28 0l0-11zm12 0q0-19 17-36q17-16 45-28q28-11 59-15l-11-24q-37 5-68 19q-31 14-50 35q-19 22-19 49l0 11l27 0l0-11zm110-1l-259 0l0 25l259 0l0-25zm30-160l-318 0l0 25l318 0l0-25zm-145 13l-30 0l0 65l30 0l0-65zm104-161l-30 0l0 88l-212 0l0 25l242 0l0-113z" transform="scale(0.015625)"/><path id="PretendardDILRegular-34c5" d="m109 202l32 0l0-183l-32 0l0 183zm-75-75l183 0l0-32l-183 0l0 32z" transform="scale(0.015625)"/><path id="PretendardDILRegular-3725" d="m41-80l-29 0l21 106l38 0l-30-106z" transform="scale(0.015625)"/><path id="PretendardDILRegular-30ca" d="m280 272l-226 0l0 25l226 0l0-25zm52-131l-318 0l0 25l318 0l0-25zm-42 130q0-30-2-56q-2-25-9-57l-31 4q6 22 8 41q3 19 3 34q1 15 1 34l0 26l30 0l0-26zm-118-171q37 0 65-8q27-8 42-23q14-14 14-35q0-20-14-35q-15-14-42-22q-27-7-65-7q-37 0-65 7q-27 8-42 22q-15 15-15 35q0 21 15 35q15 15 42 23q28 8 65 8zm0-25q-28 0-48-5q-21-5-32-14q-10-9-10-22q0-12 10-21q11-9 32-14q20-5 48-5q28 0 48 5q21 5 32 14q10 9 10 21q0 13-10 22q-11 9-32 14q-20 5-48 5z" transform="scale(0.015625)"/></defs><use xlink:href="#PretendardDILRegular-3638"/><use xlink:href="#PretendardDILRegular-3724" transform="translate(5.4 0)"/><use xlink:href="#PretendardDILRegular-364f" transform="translate(6.99 0)"/><use xlink:href="#PretendardDILRegular-3696" transform="translate(8.56 0)"/><use xlink:href="#PretendardDILRegular-33d9" transform="translate(12.04 0)"/><use xlink:href="#PretendardDILRegular-3709" transform="translate(15.96 0)"/><use xlink:href="#PretendardDILRegular-3701" transform="translate(19.75 0)"/><use xlink:href="#PretendardDILRegular-3701" transform="translate(23.47 0)"/><use xlink:href="#PretendardDILRegular-3724" transform="translate(27.19 0)"/><use xlink:href="#PretendardDILRegular-364f" transform="translate(28.78 0)"/><use xlink:href="#PretendardDILRegular-360f" transform="translate(30.35 0)"/><use xlink:href="#PretendardDILRegular-3635" transform="translate(35.75 0)"/><use xlink:href="#PretendardDILRegular-33d9" transform="translate(41.15 0)"/><use xlink:href="#PretendardDILRegular-34fb" transform="translate(45.07 0)"/><use xlink:href="#PretendardDILRegular-3624" transform="translate(50.47 0)"/><use xlink:href="#PretendardDILRegular-364f" transform="translate(55.87 0)"/><use xlink:href="#PretendardDILRegular-348c" transform="translate(57.44 0)"/><use xlink:href="#PretendardDILRegular-3603" transform="translate(62.84 0)"/><use xlink:href="#PretendardDILRegular-3430" transform="translate(68.24 0)"/><use xlink:href="#PretendardDILRegular-34c5" transform="translate(73.64 0)"/><use xlink:href="#PretendardDILRegular-348c" transform="translate(77.56 0)"/><use xlink:href="#PretendardDILRegular-3603" transform="translate(82.96 0)"/><use xlink:href="#PretendardDILRegular-3430" transform="translate(88.37 0)"/><use xlink:href="#PretendardDILRegular-3725" transform="translate(93.77 0)"/><use xlink:href="#PretendardDILRegular-364f" transform="translate(95.38 0)"/><use xlink:href="#PretendardDILRegular-30ca" transform="translate(96.95 0)"/><use xlink:href="#PretendardDILRegular-3635" transform="translate(102.35 0)"/><use xlink:href="#PretendardDILRegular-33d9" transform="translate(107.75 0)"/><use xlink:href="#PretendardDILRegular-3603" transform="translate(111.67 0)"/><use xlink:href="#PretendardDILRegular-3430" transform="translate(117.07 0)"/><use xlink:href="#PretendardDILRegular-34c5" transform="translate(122.47 0)"/><use xlink:href="#PretendardDILRegular-34fb" transform="translate(126.39 0)"/><use xlink:href="#PretendardDILRegular-3624" transform="translate(131.79 0)"/><use xlink:href="#PretendardDILRegular-364f" transform="translate(137.19 0)"/><use xlink:href="#PretendardDILRegular-3603" transform="translate(138.76 0)"/><use xlink:href="#PretendardDILRegular-3430" transform="translate(144.16 0)"/><use xlink:href="#PretendardDILRegular-3724" transform="translate(149.56 0)"/></g></g><g id="text_4"><g style="fill: #475569" transform="translate(34.56 440.64) scale(1.728 -1.728)"><defs><path id="PretendardDILRegular-3651" d="m31 283l99 0q29 0 49-10q19-10 29-27q10-17 10-38q0-17-6-30q-6-12-17-19q-10-7-23-11l0-2q13-1 26-10q14-8 22-24q9-16 9-37q0-22-10-39q-10-16-31-26q-22-10-54-10l-103 0l0 283zm103-252q21 0 35 6q13 6 20 16q6 9 6 22q0 15-7 27q-8 12-21 19q-14 7-31 7l-70 0l0-97l68 0zm-5 128q16 0 28 6q13 6 20 17q7 11 7 25q0 13-6 23q-5 10-17 16q-13 6-31 6l-64 0l0-93l63 0z" transform="scale(0.015625)"/><path id="PretendardDILRegular-35f7" d="m295 186l-238 0l0 24l238 0l0-24zm37-73l-318 0l0 25l318 0l0-25zm-244 85l-31 0l0 105l31 0l0-105zm209-221l-242 0l0 25l242 0l0-25zm-211 18l-31 0l0 83l31 0l0-83z" transform="scale(0.015625)"/><path id="PretendardDILRegular-3622" d="m123 32l-30 0l0 104l30 0l0-104zm130 0l-31 0l0 104l31 0l0-104zm79-19l-318 0l0 26l318 0l0-26zm-160 281q37 0 66-11q29-11 45-32q16-20 16-47q0-26-16-46q-16-20-45-32q-29-11-66-11q-36 0-65 11q-29 12-45 32q-17 20-17 46q0 27 17 47q16 21 45 32q29 11 65 11zm0-26q-28 1-50-7q-22-8-34-23q-13-15-13-34q0-19 13-34q12-14 34-22q22-9 50-9q28 0 50 9q23 8 35 22q13 15 13 34q0 19-13 34q-12 15-35 23q-22 8-50 7z" transform="scale(0.015625)"/><path id="PretendardDILRegular-34e4" d="m280 272l-226 0l0 25l226 0l0-25zm52-128l-318 0l0 25l318 0l0-25zm-42 127q0-30-2-55q-2-25-9-57l-31 2q6 23 8 42q3 19 3 34q1 15 1 34l0 26l30 0l0-26zm2-298l-239 0l0 123l239 0l0-123zm-208 25l177 0l0 74l-177 0l0-74z" transform="scale(0.015625)"/><path id="PretendardDILRegular-351c" d="m129 251q0-31-12-58q-13-28-35-49q-22-20-50-31l-16 25q25 9 45 26q20 18 32 40q11 23 11 47l0 29l25 0l0-29zm6 1q0-23 11-44q10-21 30-37q19-16 44-25l-16-24q-28 10-49 29q-21 20-33 46q-12 26-12 55l0 28l25 0l0-28zm145-53l-78 0l0 26l78 0l0-26zm-68 67l-187 0l0 25l187 0l0-25zm90-298l-31 0l0 96l-203 0l0 25l234 0l0-121zm0 139l-31 0l0 209l31 0l0-209z" transform="scale(0.015625)"/><path id="PretendardDILRegular-3614" d="m128 260q0-33-12-62q-12-28-34-50q-22-21-52-32l-16 25q26 9 47 27q20 18 31 42q11 23 11 50l0 36l25 0l0-36zm6 1q0-24 10-47q11-22 31-38q19-17 45-26l-18-23q-28 10-49 30q-21 20-33 46q-12 27-12 58l0 35l26 0l0-35zm168-151l-31 0l0 206l31 0l0-206zm-115-10q36 0 62-8q26-8 40-22q14-15 14-36q0-20-14-35q-14-15-40-22q-26-8-62-8q-36 0-62 8q-27 7-41 22q-14 15-14 35q0 21 14 36q14 14 41 22q26 8 62 8zm0-25q-26 0-46-5q-19-4-30-14q-10-9-10-22q0-12 10-21q11-9 30-14q20-5 46-5q26 0 46 5q19 5 29 14q11 9 11 21q0 13-11 22q-10 10-29 14q-20 5-46 5zm91 141l-84 0l0 25l84 0l0-25z" transform="scale(0.015625)"/><path id="PretendardDILRegular-3609" d="m332 112l-318 0l0 26l318 0l0-26zm-142-71l-30 0l0 81l30 0l0-81zm100 137l-235 0l0 120l235 0l0-120zm-205 24l175 0l0 72l-175 0l0-72zm211-226l-242 0l0 26l242 0l0-26zm-211 17l-31 0l0 83l31 0l0-83z" transform="scale(0.015625)"/><path id="PretendardDILRegular-34b5" d="m286 91l-31 0l0 225l31 0l0-225zm52 102l-61 0l0 26l61 0l0-26zm-162-104q35 0 60-7q26-7 40-21q13-13 13-32q0-19-13-32q-14-14-40-21q-25-7-60-7q-35 0-61 7q-26 7-39 21q-14 13-14 32q0 19 14 32q13 14 39 21q26 7 61 7zm0-24q-26 0-45-4q-19-4-29-13q-9-8-9-19q0-11 9-19q10-8 29-13q19-4 45-4q26 0 44 4q19 5 29 13q10 8 10 19q0 11-10 19q-10 9-29 13q-18 4-44 4zm46 187l-207 0l0 24l207 0l0-24zm-104-18q25 0 44-8q19-8 29-22q11-13 11-32q0-18-11-32q-10-14-29-21q-19-8-44-8q-25 0-44 8q-18 7-29 21q-10 14-10 32q0 19 10 32q11 14 29 22q19 8 44 8zm0-23q-16 0-28-5q-13-5-19-14q-7-8-7-20q0-11 7-19q6-9 19-14q12-4 28-4q16 0 29 4q12 5 19 14q7 8 7 19q0 12-7 20q-7 9-19 14q-13 5-29 5zm16 51l-31 0l0 56l31 0l0-56z" transform="scale(0.015625)"/><path id="PretendardDILRegular-34ff" d="m59 251l101 0l0 50l31 0l0-151l-162 0l0 151l30 0l0-50zm101-76l0 52l-101 0l0-52l101 0zm126-39l-31 0l0 180l31 0l0-180zm52 78l-66 0l0 26l66 0l0-26zm-52-178l-191 0l0-53l-30 0l0 76l190 0l0 36l-191 0l0 25l222 0l0-84zm12-64l-233 0l0 25l233 0l0-25z" transform="scale(0.015625)"/><path id="PretendardDILRegular-2dd3" d="m112 253q0-24-10-45q-10-21-29-36q-19-16-45-24l-14 24q22 6 39 18q17 13 26 29q9 16 9 34l0 4l24 0l0-4zm5 0q0-16 9-31q8-15 25-27q16-11 37-17l-14-24q-25 8-43 23q-19 14-28 34q-10 20-10 42l0 4l24 0l0-4zm63-3l-157 0l0 24l157 0l0-24zm-63 15l-29 0l0 44l29 0l0-44zm193-297l-30 0l0 348l30 0l0-348zm-66 18l-29 0l0 322l29 0l0-322zm-17 71l-77 0l0 25l77 0l0-25zm-110-63l-29 0l0 124l29 0l0-124zm-108 136q51 0 98 2q48 2 86 7l2-23q-39-7-86-9q-47-3-97-3l-3 26z" transform="scale(0.015625)"/></defs><use xlink:href="#PretendardDILRegular-3651"/><use xlink:href="#PretendardDILRegular-364f" transform="translate(3.87 0)"/><use xlink:href="#PretendardDILRegular-35f7" transform="translate(5.44 0)"/><use xlink:href="#PretendardDILRegular-364f" transform="translate(10.84 0)"/><use xlink:href="#PretendardDILRegular-3622" transform="translate(12.41 0)"/><use xlink:href="#PretendardDILRegular-34e4" transform="translate(17.81 0)"/><use xlink:href="#PretendardDILRegular-364f" transform="translate(23.21 0)"/><use xlink:href="#PretendardDILRegular-351c" transform="translate(24.78 0)"/><use xlink:href="#PretendardDILRegular-3635" transform="translate(30.18 0)"/><use xlink:href="#PretendardDILRegular-3614" transform="translate(35.58 0)"/><use xlink:href="#PretendardDILRegular-364f" transform="translate(40.98 0)"/><use xlink:href="#PretendardDILRegular-3609" transform="translate(42.55 0)"/><use xlink:href="#PretendardDILRegular-34b5" transform="translate(47.95 0)"/><use xlink:href="#PretendardDILRegular-3603" transform="translate(53.35 0)"/><use xlink:href="#PretendardDILRegular-364f" transform="translate(58.76 0)"/><use xlink:href="#PretendardDILRegular-34ff" transform="translate(60.32 0)"/><use xlink:href="#PretendardDILRegular-2dd3" transform="translate(65.73 0)"/><use xlink:href="#PretendardDILRegular-3724" transform="translate(71.13 0)"/></g></g><g id="text_5"><g style="fill: #6b7280" transform="translate(536.3145 426.24) scale(1.728 -1.728)"><defs><path id="PretendardDILRegular-3631" d="m126 209q0-35-14-70q-13-35-36-63q-22-27-49-41l-19 24q25 13 46 37q22 24 35 54q13 30 13 59l0 57l24 0l0-57zm6 0q0-27 12-55q12-29 32-52q21-22 46-34l-18-24q-27 13-49 39q-22 26-35 59q-13 33-13 67l0 57l25 0l0-57zm78 45l-189 0l0 26l189 0l0-26zm73-286l-31 0l0 348l31 0l0-348zm58 181l-65 0l0 26l65 0l0-26z" transform="scale(0.015625)"/><path id="PretendardDILRegular-34f8" d="m134 26l-30 0l0 86l30 0l0-86zm112 1l-30 0l0 86l30 0l0-86zm86-16l-318 0l0 26l318 0l0-26zm-40 174l-208 0l0-71l-30 0l0 96l208 0l0 54l-209 0l0 26l239 0l0-105zm8-82l-246 0l0 25l246 0l0-25z" transform="scale(0.015625)"/><path id="PretendardDILRegular-3726" d="m51-2q-7 0-13 3q-6 4-9 10q-3 5-3 12q0 7 3 13q3 5 9 9q6 3 13 3q6 0 12-3q6-4 9-9q4-6 4-13q0-7-4-12q-3-6-9-10q-6-3-12-3zm0 157q-7 0-13 3q-6 4-9 10q-3 6-3 12q0 7 3 13q3 5 9 9q6 3 13 3q6 0 12-3q6-4 9-9q4-6 4-13q0-6-4-12q-3-6-9-10q-6-3-12-3z" transform="scale(0.015625)"/><path id="PretendardDILRegular-3645" d="m286 114l-31 0l0 202l31 0l0-202zm52 86l-66 0l0 27l66 0l0-27zm-242-139l159 0l0 37l31 0l0-125l-220 0l0 125l30 0l0-37zm159-63l0 39l-159 0l0-39l159 0zm-33 256l-207 0l0 26l207 0l0-26zm-104-16q25 0 44-7q19-8 29-21q11-14 11-33q0-18-11-32q-10-13-29-21q-19-8-44-8q-25 0-44 8q-18 8-29 21q-10 14-10 32q0 19 10 33q11 13 29 21q19 7 44 7zm0-24q-16 1-28-4q-13-4-19-13q-7-9-7-20q0-11 7-19q6-9 19-13q12-5 28-5q16 0 29 5q12 4 19 13q7 8 7 19q0 12-7 20q-7 9-19 13q-13 5-29 4zm16 52l-31 0l0 53l31 0l0-53z" transform="scale(0.015625)"/><path id="PretendardDILRegular-34ef" d="m311-32l-29 0l0 348l29 0l0-348zm-87 189l-89 0l0 26l89 0l0-26zm16-171l-29 0l0 321l29 0l0-321zm-190 92q43 0 70 2q28 2 57 8l3-26q-29-6-57-8q-28-2-73-2l-22 0l0 26l22 0zm109 169l-102 0l0-179l-29 0l0 205l131 0l0-26z" transform="scale(0.015625)"/><path id="PretendardDILRegular-36dc" d="m300-32l-30 0l0 348l30 0l0-348zm-184 321q25 0 46-15q20-15 31-43q11-27 11-63q0-37-11-64q-11-27-31-42q-21-15-46-15q-26 0-46 15q-20 15-32 42q-11 27-11 64q0 36 11 63q12 28 32 43q20 15 46 15zm0-28q-18 0-31-11q-13-12-21-33q-7-21-7-49q0-28 7-49q8-22 21-33q13-12 31-12q17 0 30 12q14 11 21 33q8 21 8 49q0 28-8 49q-7 21-21 33q-13 11-30 11z" transform="scale(0.015625)"/><path id="PretendardDILRegular-3640" d="m302-32l-30 0l0 348l30 0l0-348zm-25 191l-79 0l0 25l79 0l0-25zm-220-82q52 0 87 2q34 2 69 9l4-26q-37-6-73-8q-35-2-87-2l-27 0l0 25l27 0zm135 181l-131 0l0-190l-31 0l0 216l162 0l0-26zm-15-97l-124 0l0 25l124 0l0-25z" transform="scale(0.015625)"/><path id="PretendardDILRegular-374c" d="m36 108q0 54 14 101q14 47 42 86l30 0q-14-20-26-51q-11-31-18-67q-8-36-8-69q0-34 8-70q7-36 18-67q12-31 26-51l-30 0q-28 41-42 87q-14 47-14 101z" transform="scale(0.015625)"/><path id="PretendardDILRegular-369b" d="m145 157q-4 14-14 22q-11 7-29 7q-13 0-23-4q-10-4-16-11q-6-8-6-17q0-10 9-18q9-7 27-11l32-8q29-7 43-21q14-14 14-37q0-18-10-32q-10-15-29-23q-18-8-45-8q-23 0-41 6q-17 7-27 21q-10 13-13 33l35 0q3-16 14-23q12-8 32-8q14 0 26 4q11 4 17 11q6 8 6 17q0 12-9 19q-8 8-26 12l-32 7q-28 7-42 22q-15 14-15 35q0 18 10 33q10 14 28 22q18 8 41 8q21 0 38-7q16-8 26-21q10-13 12-30l-33 0z" transform="scale(0.015625)"/><path id="PretendardDILRegular-368a" d="m116-4q-30 0-53 13q-22 14-34 38q-12 25-12 57q0 33 12 58q12 25 34 39q21 14 50 14q24 0 45-11q20-10 33-34q13-24 13-61l0-14l-164 0l0 28l130 0q0 18-7 32q-7 14-20 22q-13 8-30 8q-19 0-33-9q-14-9-22-25q-8-15-8-33l0-19q0-23 9-40q8-16 23-25q14-9 34-9q12 0 22 4q10 3 16 8q7 6 11 13l36 0q-5-16-17-28q-11-13-29-20q-17-6-39-6z" transform="scale(0.015625)"/><path id="PretendardDILRegular-3689" d="m107-4q-26 0-47 13q-20 14-32 39q-11 25-11 58q0 33 11 58q12 24 32 38q21 13 47 13q19 0 31-6q13-6 19-13q5-7 12-18l2 0l0 105l34 0l0-283l-33 0l0 32l-3 0q-7-10-13-17q-6-7-18-13q-12-6-31-6zm5 30q19 0 32 10q14 10 21 28q7 18 7 42q0 24-7 42q-6 17-20 27q-14 10-33 10q-20 0-34-10q-13-11-20-28q-7-18-7-41q0-23 7-41q7-18 20-29q14-10 34-10z" transform="scale(0.015625)"/><path id="PretendardDILRegular-3705" d="m20 87l127 196l21 0l0-45l-15 0l-96-147l0-2l173 0l0-31l-210 0l0 29zm137-21l0 14l0 203l33 0l0-283l-33 0l0 66z" transform="scale(0.015625)"/><path id="PretendardDILRegular-3703" d="m26 26l97 101q19 21 29 33q10 12 15 24q5 12 5 24q0 14-7 25q-8 11-20 17q-13 6-29 6q-16 0-29-6q-12-7-19-19q-7-12-7-28l-33 0q0 25 11 44q12 19 32 29q21 11 46 11q26 0 45-11q20-10 32-28q11-18 11-40q0-16-6-31q-6-15-19-32q-14-18-40-45l-65-66l0-3l135 0l0-31l-183 0l-1 26z" transform="scale(0.015625)"/><path id="PretendardDILRegular-374d" d="m101 108q-1 54-15 101q-14 47-42 86l-29 0q13-20 25-51q12-31 19-67q7-36 7-69q0-34-7-70q-7-36-19-67q-12-31-25-51l29 0q28 41 42 87q14 47 15 101z" transform="scale(0.015625)"/></defs><use xlink:href="#PretendardDILRegular-3631"/><use xlink:href="#PretendardDILRegular-34f8" transform="translate(5.4 0)"/><use xlink:href="#PretendardDILRegular-3726" transform="translate(10.8 0)"/><use xlink:href="#PretendardDILRegular-364f" transform="translate(12.39 0)"/><use xlink:href="#PretendardDILRegular-3645" transform="translate(13.96 0)"/><use xlink:href="#PretendardDILRegular-3614" transform="translate(19.36 0)"/><use xlink:href="#PretendardDILRegular-364f" transform="translate(24.76 0)"/><use xlink:href="#PretendardDILRegular-34ef" transform="translate(26.33 0)"/><use xlink:href="#PretendardDILRegular-36dc" transform="translate(31.73 0)"/><use xlink:href="#PretendardDILRegular-3640" transform="translate(37.13 0)"/><use xlink:href="#PretendardDILRegular-374c" transform="translate(42.53 0)"/><use xlink:href="#PretendardDILRegular-369b" transform="translate(44.66 0)"/><use xlink:href="#PretendardDILRegular-368a" transform="translate(47.76 0)"/><use xlink:href="#PretendardDILRegular-368a" transform="translate(51.22 0)"/><use xlink:href="#PretendardDILRegular-3689" transform="translate(54.67 0)"/><use xlink:href="#PretendardDILRegular-364f" transform="translate(58.37 0)"/><use xlink:href="#PretendardDILRegular-3705" transform="translate(59.93 0)"/><use xlink:href="#PretendardDILRegular-3703" transform="translate(63.83 0)"/><use xlink:href="#PretendardDILRegular-374d" transform="translate(67.5 0)"/></g></g><g id="text_6"><g style="fill: #0b0f1a" transform="translate(34.56 92.16) scale(1.9584 -1.9584)"><defs><path id="PretendardDILSemiBold-3650" d="m8 0l99 283l63 0l100-283l-55 0l-75 225l-2 0l-76-225l-54 0zm205 111l0-41l-149 0l0 41l149 0z" transform="scale(0.015625)"/><path id="PretendardDILSemiBold-3724" d="m55-3q-9 0-16 4q-7 4-11 11q-4 7-4 15q0 8 4 15q4 7 11 11q7 4 16 4q7 0 15-4q7-4 11-11q4-7 4-15q0-8-4-15q-4-7-11-11q-8-4-15-4z" transform="scale(0.015625)"/><path id="PretendardDILSemiBold-3609" d="m334 107l-322 0l0 35l322 0l0-35zm-136-65l-43 0l0 78l43 0l0-78zm95 133l-241 0l0 127l241 0l0-127zm-198 34l155 0l0 59l-155 0l0-59zm203-237l-248 0l0 35l248 0l0-35zm-204 24l-44 0l0 78l44 0l0-78z" transform="scale(0.015625)"/><path id="PretendardDILSemiBold-34b5" d="m290 93l-43 0l0 225l43 0l0-225zm50 96l-62 0l0 36l62 0l0-36zm-164-99q36 0 63-7q26-8 41-22q14-14 14-33q0-19-14-33q-15-15-41-22q-27-7-63-7q-36 0-63 7q-26 7-41 22q-14 14-14 33q0 19 14 33q15 14 41 22q27 7 63 7zm0-33q-24 0-41-3q-16-4-25-10q-9-7-9-16q0-9 9-16q9-7 25-10q17-4 41-4q24 0 41 4q16 3 25 10q9 6 9 16q0 9-9 16q-9 6-25 10q-17 3-41 3zm46 191l-210 0l0 34l210 0l0-34zm-105-14q25 0 45-8q19-7 30-22q11-14 11-33q0-18-11-33q-11-14-30-22q-20-8-45-8q-26 0-45 8q-20 8-31 22q-11 15-11 33q0 19 11 33q11 15 31 22q19 8 45 8zm0-32q-13 0-24-3q-10-4-15-11q-6-7-6-17q0-9 6-16q5-7 15-11q11-3 24-3q13 0 23 3q11 4 16 11q6 7 6 16q0 10-6 17q-5 7-16 11q-10 3-23 3zm22 62l-44 0l0 56l44 0l0-56z" transform="scale(0.015625)"/><path id="PretendardDILSemiBold-348a" d="m274 239l-92 0l0 32l92 0l0-32zm0-65l-92 0l0 34l92 0l0-34zm33-38l-43 0l0 182l43 0l0-182zm0-105l-188 0l0-49l-44 0l0 81l189 0l0 25l-190 0l0 33l233 0l0-90zm12-61l-244 0l0 34l244 0l0-34zm-248 288l79 0l0 45l43 0l0-156l-165 0l0 156l43 0l0-45zm79-76l0 43l-79 0l0-43l79 0z" transform="scale(0.015625)"/><path id="PretendardDILSemiBold-33a7" d="m333 116l-321 0l0 35l321 0l0-35zm-161-23q39 1 66-7q27-7 42-22q15-14 15-34q0-21-15-35q-15-15-42-22q-27-8-66-8q-38 0-66 8q-27 7-42 22q-15 14-15 35q0 20 15 34q14 15 42 22q28 8 66 7zm0-33q-26 0-43-3q-17-3-27-10q-8-7-8-17q0-11 8-18q10-6 27-10q17-3 43-3q26 0 43 3q18 4 27 11q9 7 9 17q0 10-9 17q-9 7-27 10q-17 3-43 3zm1 250q38 0 67-8q29-8 44-24q15-15 15-36q0-21-15-37q-15-15-44-23q-29-9-67-9q-39 0-68 9q-28 8-44 23q-16 16-16 37q0 21 16 36q16 16 44 24q29 8 68 8zm0-34q-26 0-45-4q-18-4-28-11q-10-8-10-19q0-11 10-19q10-8 28-12q18-4 45-4q25 0 44 4q18 4 28 12q10 8 10 19q0 11-10 19q-10 7-28 11q-19 4-44 4z" transform="scale(0.015625)"/><path id="PretendardDILSemiBold-33f8" d="m290 130l-43 0l0 188l43 0l0-188zm50 74l-62 0l0 36l62 0l0-36zm-285-29q60 0 94 2q33 2 66 9l5-35q-34-7-69-9q-35-3-96-3l-29 0l0 36l29 0zm128 86l-113 0l0-110l-44 0l0 145l157 0l0-35zm-79-186l143 0l0 37l43 0l0-142l-229 0l0 142l43 0l0-37zm143-70l0 36l-143 0l0-36l143 0z" transform="scale(0.015625)"/><path id="PretendardDILSemiBold-3504" d="m334 101l-322 0l0 34l322 0l0-34zm-136-61l-43 0l0 77l43 0l0-77zm100-68l-248 0l0 35l248 0l0-35zm-204 21l-44 0l0 76l44 0l0-76zm2 274l153 0l0 40l43 0l0-144l-238 0l0 144l42 0l0-40zm153-69l0 37l-153 0l0-37l153 0z" transform="scale(0.015625)"/><path id="PretendardDILSemiBold-3642" d="m335 6l-323 0l0 37l323 0l0-37zm-142 20l-43 0l0 101l43 0l0-101zm113 226l-268 0l0 35l268 0l0-35zm-1-140l-266 0l0 34l266 0l0-34zm-172 29l-44 0l0 118l44 0l0-118zm122 0l-43 0l0 118l43 0l0-118z" transform="scale(0.015625)"/><path id="PretendardDILSemiBold-374c" d="m33 108q0 54 15 100q15 46 43 87l47 0q-14-20-26-51q-12-31-20-67q-8-36-8-69q0-34 8-70q8-36 20-67q12-31 26-51l-47 0q-28 41-43 88q-15 46-15 100z" transform="scale(0.015625)"/><path id="PretendardDILSemiBold-3455" d="m93 145q-20 0-34 9q-14 9-21 26q-7 16-7 38q0 21 7 38q8 16 22 26q14 9 33 9q20 0 34-9q14-9 21-26q7-16 7-38q0-22-7-39q-7-16-21-25q-14-9-34-9zm0 31q9 0 15 5q6 5 8 15q3 9 3 22q0 13-3 22q-2 9-8 15q-6 5-15 4q-8 1-14-5q-6-5-9-14q-3-10-3-22q0-13 3-22q3-10 9-15q6-5 14-5zm185-184q-20 1-34 10q-14 9-21 25q-7 17-7 38q0 22 7 39q7 16 22 25q14 9 33 9q20 0 34-9q14-9 21-25q7-17 7-39q0-21-7-38q-7-16-21-25q-15-9-34-10zm0 32q9 0 15 5q5 5 8 14q3 10 3 22q0 13-3 23q-3 9-8 14q-6 5-15 5q-8 0-14-5q-6-6-9-15q-3-9-3-22q0-12 3-22q3-9 9-14q5-5 14-5zm-17 259l40 0l-194-283l-40 0l194 283z" transform="scale(0.015625)"/><path id="PretendardDILSemiBold-374d" d="m117 108q0 54-15 100q-15 46-44 87l-47 0q14-20 26-51q13-31 20-67q8-36 8-69q0-34-8-70q-7-36-20-67q-12-31-26-51l47 0q28 41 44 88q15 46 15 100z" transform="scale(0.015625)"/></defs><use xlink:href="#PretendardDILSemiBold-3650"/><use xlink:href="#PretendardDILSemiBold-3724" transform="translate(4.34 0)"/><use xlink:href="#PretendardDILSemiBold-364f" transform="translate(6.04 0)"/><use xlink:href="#PretendardDILSemiBold-3609" transform="translate(7.53 0)"/><use xlink:href="#PretendardDILSemiBold-34b5" transform="translate(12.93 0)"/><use xlink:href="#PretendardDILSemiBold-348a" transform="translate(18.33 0)"/><use xlink:href="#PretendardDILSemiBold-364f" transform="translate(23.73 0)"/><use xlink:href="#PretendardDILSemiBold-33a7" transform="translate(25.22 0)"/><use xlink:href="#PretendardDILSemiBold-33f8" transform="translate(30.62 0)"/><use xlink:href="#PretendardDILSemiBold-364f" transform="translate(36.02 0)"/><use xlink:href="#PretendardDILSemiBold-3504" transform="translate(37.51 0)"/><use xlink:href="#PretendardDILSemiBold-3642" transform="translate(42.91 0)"/><use xlink:href="#PretendardDILSemiBold-374c" transform="translate(48.31 0)"/><use xlink:href="#PretendardDILSemiBold-3455" transform="translate(50.64 0)"/><use xlink:href="#PretendardDILSemiBold-374d" transform="translate(56.44 0)"/></g></g><g id="text_7"><g style="fill: #475569" transform="translate(616.595625 92.16) scale(1.728 -1.728)"><use xlink:href="#PretendardDILRegular-34fb"/><use xlink:href="#PretendardDILRegular-3624" transform="translate(5.4 0)"/><use xlink:href="#PretendardDILRegular-364f" transform="translate(10.8 0)"/><use xlink:href="#PretendardDILRegular-3603" transform="translate(12.37 0)"/><use xlink:href="#PretendardDILRegular-3430" transform="translate(17.77 0)"/></g></g><g id="text_8"><g style="fill: #475569" transform="translate(571.6755 92.16) scale(1.728 -1.728)"><use xlink:href="#PretendardDILRegular-3603"/><use xlink:href="#PretendardDILRegular-3430" transform="translate(5.4 0)"/></g></g><g id="text_9"><g style="fill: #475569" transform="translate(526.809375 92.16) scale(1.728 -1.728)"><defs><path id="PretendardDILRegular-360e" d="m332 13l-318 0l0 25l318 0l0-25zm-145 17l-30 0l0 92l30 0l0-92zm-105 198l181 0l0 63l30 0l0-178l-241 0l0 178l30 0l0-63zm181-90l0 65l-181 0l0-65l181 0z" transform="scale(0.015625)"/><path id="PretendardDILRegular-352c" d="m330 106l-316 0l0 25l316 0l0-25zm-143 15l-30 0l0 56l30 0l0-56zm106 45l-237 0l0 24l237 0l0-24zm-2 114l-204 0l0-103l-31 0l0 129l235 0l0-26zm-9-55l-205 0l0 23l205 0l0-23zm-110-145q39 0 65-6q27-6 41-19q14-12 14-30q0-18-14-31q-14-12-41-18q-26-7-65-7q-38 0-65 7q-27 6-41 18q-14 13-14 31q0 18 14 30q14 13 41 19q27 6 65 6zm0-23q-28 0-48-4q-20-3-30-11q-11-7-11-17q0-11 10-18q11-7 31-11q20-3 48-3q29 0 48 3q20 4 31 11q10 7 10 18q0 10-10 17q-11 8-31 11q-20 4-48 4z" transform="scale(0.015625)"/></defs><use xlink:href="#PretendardDILRegular-360e"/><use xlink:href="#PretendardDILRegular-352c" transform="translate(5.4 0)"/></g></g><g id="text_10"><g style="fill: #475569" transform="translate(472.238438 92.16) scale(1.728 -1.728)"><use xlink:href="#PretendardDILRegular-348c"/><use xlink:href="#PretendardDILRegular-3603" transform="translate(5.4 0)"/><use xlink:href="#PretendardDILRegular-3430" transform="translate(10.8 0)"/></g></g><g id="text_11"><g style="fill: #475569" transform="translate(396.259875 92.16) scale(1.728 -1.728)"><use xlink:href="#PretendardDILRegular-34fb"/><use xlink:href="#PretendardDILRegular-3624" transform="translate(5.4 0)"/><use xlink:href="#PretendardDILRegular-364f" transform="translate(10.8 0)"/><use xlink:href="#PretendardDILRegular-348c" transform="translate(12.37 0)"/><use xlink:href="#PretendardDILRegular-3603" transform="translate(17.77 0)"/><use xlink:href="#PretendardDILRegular-3430" transform="translate(23.17 0)"/></g></g><g id="text_12"><g style="fill: #1f2937" transform="translate(34.56 126.72) scale(1.8432 -1.8432)"><defs><path id="PretendardDILRegular-33a7" d="m330 122l-316 0l0 24l316 0l0-24zm-158-30q38 0 64-7q27-7 42-21q14-14 14-34q0-19-14-33q-15-14-42-21q-26-8-64-8q-37 0-64 8q-27 7-41 21q-15 14-15 33q0 20 15 34q14 14 41 21q27 7 64 7zm0-24q-27 0-47-4q-20-4-31-13q-10-8-10-21q0-12 10-20q11-8 31-13q20-4 47-4q28 0 48 4q20 5 30 13q11 9 11 20q0 13-11 21q-10 9-30 13q-20 4-48 4zm0 239q38 0 66-8q27-8 42-23q15-15 15-35q0-21-15-36q-15-14-42-22q-28-8-66-8q-37 0-65 8q-28 8-43 22q-15 15-15 36q0 20 15 35q15 15 43 23q28 8 65 8zm0-25q-27 0-48-5q-21-5-32-14q-11-9-11-22q0-13 11-23q11-9 32-14q20-5 48-5q28 0 49 5q20 5 32 14q11 10 11 23q0 13-11 22q-12 9-32 14q-21 5-49 5z" transform="scale(0.015625)"/><path id="PretendardDILRegular-35f9" d="m311-32l-29 0l0 348l29 0l0-348zm-22 182l-67 0l0 26l67 0l0-26zm-59-164l-28 0l0 322l28 0l0-322zm-181 94q43 0 71 2q28 2 57 8l3-26q-30-5-59-8q-28-2-72-2l-22 0l0 26l22 0zm108 168l-100 0l0-180l-30 0l0 205l130 0l0-25z" transform="scale(0.015625)"/><path id="PretendardDILRegular-343a" d="m301 59l-31 0l0 256l31 0l0-256zm11-83l-235 0l0 26l235 0l0-26zm-205 12l-30 0l0 94l30 0l0-94zm28 246q0-30-12-57q-13-27-35-46q-22-20-51-30l-16 24q26 9 46 25q20 16 31 38q12 23 12 46l0 15l25 0l0-15zm5 0q0-22 12-43q11-20 31-36q21-15 46-23l-15-25q-29 9-52 28q-22 19-34 45q-13 25-13 54l0 15l25 0l0-15zm80 10l-190 0l0 24l190 0l0-24zm-79 12l-31 0l0 58l31 0l0-58z" transform="scale(0.015625)"/><path id="PretendardDILRegular-349e" d="m291 212l-90 0l0 26l90 0l0-26zm-162 50q0-28-13-55q-12-26-34-45q-23-20-51-30l-15 24q25 9 45 26q20 16 31 37q12 21 12 43l0 24l25 0l0-24zm5 0q0-21 11-40q11-19 31-34q19-15 44-24l-16-24q-28 10-49 28q-22 18-34 42q-12 25-12 52l0 24l25 0l0-24zm78 10l-187 0l0 25l187 0l0-25zm90-136l-31 0l0 180l31 0l0-180zm0-100l-194 0l0-55l-31 0l0 78l194 0l0 35l-194 0l0 25l225 0l0-83zm13-64l-238 0l0 25l238 0l0-25z" transform="scale(0.015625)"/></defs><use xlink:href="#PretendardDILRegular-33a7"/><use xlink:href="#PretendardDILRegular-35f9" transform="translate(5.4 0)"/><use xlink:href="#PretendardDILRegular-364f" transform="translate(10.8 0)"/><use xlink:href="#PretendardDILRegular-343a" transform="translate(12.37 0)"/><use xlink:href="#PretendardDILRegular-349e" transform="translate(17.77 0)"/></g></g><g id="text_13"><g style="fill: #0b0f1a" transform="translate(250.4655 126) scale(1.728 -1.728)"><defs><path id="PretendardDILSemiBold-3702" d="m138 0l-51 0l0 233l-1 0l-67-42l0 47l70 45l49 0l0-283z" transform="scale(0.015625)"/><path id="PretendardDILSemiBold-3703" d="m23 37l100 96q17 16 26 27q9 10 13 21q5 10 5 22q0 12-6 22q-7 10-18 15q-11 6-25 6q-14 0-25-6q-11-6-17-17q-6-11-6-25l-48 0q0 27 13 47q12 20 34 31q22 11 50 11q28 0 50-11q22-10 34-29q13-19 13-42q0-17-7-32q-6-15-21-33q-15-19-43-45l-51-50l0-2l126 0l0-43l-196 0l-1 37z" transform="scale(0.015625)"/></defs><use xlink:href="#PretendardDILSemiBold-3702"/><use xlink:href="#PretendardDILSemiBold-3703" transform="translate(2.87 0)"/><use xlink:href="#PretendardDILSemiBold-3455" transform="translate(6.63 0)"/></g></g><g id="text_14"><g style="fill: #0b0f1a" transform="translate(614.664 126) scale(1.728 -1.728)"><defs><path id="PretendardDILSemiBold-3708" d="m157 238l0 2l-143 0l0 43l195 0l0-44l-122-239l-53 0l123 238z" transform="scale(0.015625)"/></defs><use xlink:href="#PretendardDILSemiBold-3708"/><use xlink:href="#PretendardDILSemiBold-3702" transform="translate(3.55 0)"/><use xlink:href="#PretendardDILSemiBold-3455" transform="translate(6.42 0)"/></g></g><g id="text_15"><g style="fill: #1f2937" transform="translate(34.56 158.4) scale(1.8432 -1.8432)"><defs><path id="PretendardDILRegular-3520" d="m302-32l-31 0l0 348l31 0l0-348zm-22 182l-85 0l0 26l85 0l0-26zm-152 52q0-35-12-69q-12-33-34-59q-22-25-50-38l-17 23q25 13 46 35q20 22 31 50q12 29 12 58l0 32l24 0l0-32zm6 0q0-28 12-55q12-27 32-48q21-22 47-33l-18-24q-28 13-50 37q-22 25-35 57q-12 32-12 66l0 32l24 0l0-32zm79 28l-189 0l0 25l189 0l0-25zm-79 11l-30 0l0 68l30 0l0-68z" transform="scale(0.015625)"/><path id="PretendardDILRegular-36d8" d="m301-32l-31 0l0 348l31 0l0-348zm-238 110q48 0 89 2q41 3 85 10l3-26q-45-7-86-9q-42-3-91-3l-29 0l0 26l29 0zm132 82l-129 0l0-92l-32 0l0 117l130 0l0 73l-130 0l0 25l161 0l0-123z" transform="scale(0.015625)"/><path id="PretendardDILRegular-3491" d="m332 116l-318 0l0 25l318 0l0-25zm-145 14l-30 0l0 65l30 0l0-65zm-4 164q0-30-20-55q-19-24-51-41q-31-16-67-22l-12 24q31 5 60 18q29 14 46 34q18 20 18 42l0 16l26 0l0-16zm5 0q0-22 17-42q18-20 47-34q28-13 59-18l-12-24q-36 6-67 22q-32 17-51 42q-19 24-19 54l0 16l26 0l0-16zm103-326l-30 0l0 89l-212 0l0 25l242 0l0-114z" transform="scale(0.015625)"/><path id="PretendardDILRegular-35fa" d="m295 128l-240 0l0 25l240 0l0-25zm37-116l-318 0l0 26l318 0l0-26zm-145 15l-30 0l0 115l30 0l0-115zm104 235l-205 0l0-121l-31 0l0 146l236 0l0-25z" transform="scale(0.015625)"/></defs><use xlink:href="#PretendardDILRegular-3520"/><use xlink:href="#PretendardDILRegular-36d8" transform="translate(5.4 0)"/><use xlink:href="#PretendardDILRegular-364f" transform="translate(10.8 0)"/><use xlink:href="#PretendardDILRegular-3491" transform="translate(12.37 0)"/><use xlink:href="#PretendardDILRegular-35fa" transform="translate(17.77 0)"/></g></g><g id="text_16"><g style="fill: #0b0f1a" transform="translate(217.013063 157.68) scale(1.728 -1.728)"><defs><path id="PretendardDILSemiBold-370a" d="m124 287q30 0 55-14q25-13 40-43q15-31 15-80q0-48-13-83q-14-34-40-53q-25-18-60-18q-27 0-48 10q-21 11-34 29q-13 19-17 42l50 0q3-11 10-20q6-8 16-12q10-5 23-5q20 0 35 12q14 11 21 33q8 22 8 52l-3 0q-7-12-18-21q-11-9-25-13q-14-5-29-5q-25 0-46 12q-20 12-32 33q-12 21-12 47q0 27 13 50q13 22 36 34q24 13 55 13zm0-41q-15 0-28-8q-12-7-20-19q-7-13-7-28q0-15 7-27q7-13 20-20q12-7 27-7q16 0 29 7q12 8 20 20q7 13 7 27q0 15-7 27q-7 13-20 20q-12 8-28 8z" transform="scale(0.015625)"/></defs><use xlink:href="#PretendardDILSemiBold-3702"/><use xlink:href="#PretendardDILSemiBold-370a" transform="translate(2.87 0)"/><use xlink:href="#PretendardDILSemiBold-3455" transform="translate(6.83 0)"/></g></g><g id="text_17"><g style="fill: #0b0f1a" transform="translate(581.544 157.68) scale(1.728 -1.728)"><defs><path id="PretendardDILSemiBold-3706" d="m124-4q-28 0-50 10q-23 11-36 29q-13 19-14 42l50 0q1-12 8-21q6-9 18-14q11-5 24-5q15 0 28 7q12 7 19 20q7 12 7 28q0 16-7 28q-7 13-20 20q-13 7-29 7q-16 0-28-6q-12-6-19-18l-47 0l17 160l167 0l0-43l-125 0l-8-75l2 0q9 10 23 16q15 6 32 6q26 0 47-12q21-12 33-34q12-21 12-48q0-28-14-50q-13-22-37-35q-23-12-53-12z" transform="scale(0.015625)"/><path id="PretendardDILSemiBold-3709" d="m126-4q-31 0-55 10q-25 11-39 29q-13 18-13 41q0 17 8 33q8 15 21 25q14 10 31 12l0 2q-14 3-25 12q-12 9-18 22q-6 14-6 29q0 22 12 39q13 17 35 27q22 10 49 10q28 0 50-10q22-10 34-27q13-17 13-39q0-15-7-29q-6-13-17-22q-12-9-26-12l0-2q17-2 31-12q13-10 22-25q8-16 8-33q0-23-14-41q-14-18-38-29q-25-10-56-10zm0 40q17 0 29 6q12 5 19 15q7 10 7 23q0 14-7 24q-7 11-20 17q-12 6-28 6q-15 0-28-6q-13-6-20-17q-7-10-7-24q0-13 7-23q7-10 19-15q13-6 29-6zm0 128q14 0 24 6q11 5 17 15q6 9 6 21q0 12-6 21q-6 10-16 15q-11 5-25 5q-14 0-24-5q-11-5-17-15q-6-9-6-21q0-12 6-21q6-10 17-15q10-6 24-6z" transform="scale(0.015625)"/></defs><use xlink:href="#PretendardDILSemiBold-3706"/><use xlink:href="#PretendardDILSemiBold-3709" transform="translate(3.86 0)"/><use xlink:href="#PretendardDILSemiBold-3455" transform="translate(7.8 0)"/></g></g><g id="text_18"><g style="fill: #1f2937" transform="translate(34.56 190.08) scale(1.8432 -1.8432)"><defs><path id="PretendardDILRegular-3606" d="m283 234l-102 0l0 25l102 0l0-25zm1-70l-103 0l0 26l103 0l0-26zm18-54l-31 0l0 206l31 0l0-206zm-112 25l-160 0l0 154l160 0l0-154zm-129 25l99 0l0 104l-99 0l0-104zm126-60q36 0 62-8q26-8 40-22q14-15 14-36q0-20-14-35q-14-15-40-22q-26-8-62-8q-36 0-62 8q-27 7-41 22q-14 15-14 35q0 21 14 36q14 14 41 22q26 8 62 8zm0-24q-27 0-46-5q-19-5-30-15q-10-9-10-22q0-12 10-21q11-9 30-15q20-5 46-5q26 0 46 5q19 6 29 14q11 10 11 22q0 13-11 22q-10 10-29 15q-20 5-46 5z" transform="scale(0.015625)"/><path id="PretendardDILRegular-34b9" d="m137 108l-30 0l0 44l30 0l0-44zm148-26l-31 0l0 233l31 0l0-233zm52 102l-65 0l0 26l65 0l0-26zm-325-66q42 0 77 1q34 0 72 3q39 2 72 7l3-22q-50-9-103-11q-53-3-117-3l-4 25zm273-150l-31 0l0 73l-199 0l0 24l230 0l0-97zm-63 292l-201 0l0 24l201 0l0-24zm-100-13q24 0 42-6q19-7 29-18q10-12 10-27q0-16-10-28q-10-11-29-18q-18-6-42-6q-25 0-43 6q-18 7-29 18q-10 12-10 28q0 15 10 27q11 11 29 18q18 6 43 6zm0-22q-16 0-28-3q-12-4-18-10q-6-7-6-16q0-9 6-16q6-7 18-11q12-3 28-3q16 0 27 3q12 4 18 11q7 7 7 16q0 9-7 16q-6 6-18 10q-11 3-27 3zm15 47l-30 0l0 46l30 0l0-46z" transform="scale(0.015625)"/></defs><use xlink:href="#PretendardDILRegular-3635"/><use xlink:href="#PretendardDILRegular-360e" transform="translate(5.4 0)"/><use xlink:href="#PretendardDILRegular-364f" transform="translate(10.8 0)"/><use xlink:href="#PretendardDILRegular-3606" transform="translate(12.37 0)"/><use xlink:href="#PretendardDILRegular-34b9" transform="translate(17.77 0)"/><use xlink:href="#PretendardDILRegular-3614" transform="translate(23.17 0)"/></g></g><g id="text_19"><g style="fill: #0b0f1a" transform="translate(221.981063 189.36) scale(1.728 -1.728)"><defs><path id="PretendardDILSemiBold-3707" d="m130-4q-31 0-55 14q-25 13-40 44q-16 30-16 79q0 48 14 83q14 35 39 53q26 18 60 18q27 0 48-11q21-10 35-28q13-18 16-41l-50 0q-3 11-10 19q-6 8-16 12q-10 5-23 5q-20 0-34-12q-14-11-22-33q-7-21-7-51l2 0q7 12 19 21q11 9 24 13q14 5 30 5q25 0 46-12q20-12 32-33q12-21 12-47q0-28-13-50q-13-23-37-35q-24-13-54-13zm-1 41q16 0 28 8q13 7 20 20q7 12 7 27q0 16-7 28q-7 13-19 20q-12 7-28 7q-16 0-28-7q-13-8-20-20q-8-13-8-28q0-14 7-27q8-13 20-20q13-8 28-8z" transform="scale(0.015625)"/></defs><use xlink:href="#PretendardDILSemiBold-3702"/><use xlink:href="#PretendardDILSemiBold-3707" transform="translate(2.87 0)"/><use xlink:href="#PretendardDILSemiBold-3455" transform="translate(6.83 0)"/></g></g><g id="text_20"><g style="fill: #0b0f1a" transform="translate(586.512 189.36) scale(1.728 -1.728)"><use xlink:href="#PretendardDILSemiBold-3706"/><use xlink:href="#PretendardDILSemiBold-3709" transform="translate(3.86 0)"/><use xlink:href="#PretendardDILSemiBold-3455" transform="translate(7.8 0)"/></g></g><g id="text_21"><g style="fill: #1f2937" transform="translate(34.56 221.76) scale(1.8432 -1.8432)"><use xlink:href="#PretendardDILRegular-3622"/><use xlink:href="#PretendardDILRegular-34e4" transform="translate(5.4 0)"/><use xlink:href="#PretendardDILRegular-364f" transform="translate(10.8 0)"/><use xlink:href="#PretendardDILRegular-351c" transform="translate(12.37 0)"/><use xlink:href="#PretendardDILRegular-3635" transform="translate(17.77 0)"/><use xlink:href="#PretendardDILRegular-3614" transform="translate(23.17 0)"/></g></g><g id="text_22"><g style="fill: #c13210" transform="translate(165.69225 221.04) scale(1.728 -1.728)"><use xlink:href="#PretendardDILSemiBold-3704"/><use xlink:href="#PretendardDILSemiBold-3702" transform="translate(3.95 0)"/><use xlink:href="#PretendardDILSemiBold-3455" transform="translate(6.82 0)"/></g></g><g id="text_23"><g style="fill: #0b0f1a" transform="translate(530.208 221.04) scale(1.728 -1.728)"><use xlink:href="#PretendardDILSemiBold-3704"/><use xlink:href="#PretendardDILSemiBold-370a" transform="translate(3.95 0)"/><use xlink:href="#PretendardDILSemiBold-3455" transform="translate(7.91 0)"/></g></g><g id="text_24"><g style="fill: #1f2937" transform="translate(34.56 253.44) scale(1.8432 -1.8432)"><defs><path id="PretendardDILRegular-351a" d="m312-32l-29 0l0 348l29 0l0-348zm-18 181l-67 0l0 26l67 0l0-26zm-58-163l-30 0l0 322l30 0l0-322zm-125 235q0-42-9-77q-9-35-28-62q-18-26-44-42l-19 24q24 13 41 37q18 23 26 54q9 31 9 66l0 41l24 0l0-41zm6 0q0-32 9-61q8-28 25-50q17-22 42-34l-19-24q-26 14-44 40q-18 25-28 58q-9 33-9 71l0 41l24 0l0-41zm64 27l-162 0l0 26l162 0l0-26z" transform="scale(0.015625)"/><path id="PretendardDILRegular-3623" d="m123 132l-30 0l0 66l30 0l0-66zm129 0l-30 0l0 66l30 0l0-66zm78-14l-316 0l0 26l316 0l0-26zm-158-26q38 0 64-7q27-7 42-21q14-14 14-34q0-19-14-33q-15-13-42-21q-26-7-64-7q-37 0-64 7q-27 8-41 21q-15 14-15 33q0 20 15 34q14 14 41 21q27 7 64 7zm0-24q-27 0-47-4q-20-5-31-13q-10-9-10-21q0-11 10-20q11-8 31-13q20-4 47-4q28 0 48 4q20 5 30 13q11 9 11 20q0 12-11 21q-10 8-30 13q-20 4-48 4zm0 241q38 0 66-8q27-7 42-22q15-14 15-34q0-20-15-35q-15-14-42-22q-28-8-66-8q-38 0-65 8q-28 8-43 22q-15 15-15 35q0 20 15 34q15 15 43 22q27 8 65 8zm0-24q-28 0-49-5q-20-5-31-14q-11-9-11-21q0-13 11-22q11-9 31-14q21-5 49-5q28 0 49 5q20 5 32 14q11 9 11 22q0 12-11 21q-12 9-32 14q-21 5-49 5z" transform="scale(0.015625)"/><path id="PretendardDILRegular-362d" d="m128 290q27 0 48-10q21-10 33-29q12-19 12-42q0-24-12-43q-12-18-33-29q-21-10-48-10q-27 0-49 10q-21 11-33 29q-12 19-12 43q0 23 12 42q12 19 33 29q22 10 49 10zm0-27q-19 0-33-7q-15-6-23-19q-8-12-8-28q0-16 8-29q8-12 23-19q14-7 33-7q18 0 33 7q14 7 22 19q8 13 8 29q0 16-8 28q-8 13-22 19q-15 7-33 7zm171-295l-31 0l0 348l31 0l0-348zm-283 102q43 0 79 1q35 1 75 3q40 3 75 8l3-23q-37-6-76-10q-40-3-75-4q-34-1-77-1l-4 26z" transform="scale(0.015625)"/><path id="PretendardDILRegular-3444" d="m337 229l-60 0l0 26l60 0l0-26zm0-73l-60 0l0 25l60 0l0-25zm-51-65l-31 0l0 225l31 0l0-225zm-110-2q35 0 60-7q26-7 40-21q13-13 13-32q0-19-13-32q-14-14-40-21q-25-7-60-7q-35 0-61 7q-26 7-39 21q-14 13-14 32q0 19 14 32q13 14 39 21q26 7 61 7zm0-24q-26 0-45-4q-19-4-29-13q-9-8-9-19q0-11 9-19q10-8 29-13q19-4 45-4q26 0 44 4q19 5 29 13q10 8 10 19q0 11-10 19q-10 9-29 13q-18 4-44 4zm46 187l-207 0l0 24l207 0l0-24zm-104-18q25 0 44-8q19-8 29-22q11-13 11-32q0-18-11-32q-10-14-29-21q-19-8-44-8q-25 0-44 8q-18 7-29 21q-10 14-10 32q0 19 10 32q11 14 29 22q19 8 44 8zm0-23q-16 0-28-5q-13-5-19-14q-7-8-7-20q0-11 7-19q6-9 19-14q12-4 28-4q16 0 29 4q12 5 19 14q7 8 7 19q0 12-7 20q-7 9-19 14q-13 5-29 5zm16 51l-31 0l0 56l31 0l0-56z" transform="scale(0.015625)"/></defs><use xlink:href="#PretendardDILRegular-351a"/><use xlink:href="#PretendardDILRegular-36dc" transform="translate(5.4 0)"/><use xlink:href="#PretendardDILRegular-3623" transform="translate(10.8 0)"/><use xlink:href="#PretendardDILRegular-364f" transform="translate(16.2 0)"/><use xlink:href="#PretendardDILRegular-362d" transform="translate(17.77 0)"/><use xlink:href="#PretendardDILRegular-3444" transform="translate(23.17 0)"/></g></g><g id="text_25"><g style="fill: #0b0f1a" transform="translate(238.404375 252.72) scale(1.728 -1.728)"><use xlink:href="#PretendardDILSemiBold-3702"/><use xlink:href="#PretendardDILSemiBold-3705" transform="translate(2.87 0)"/><use xlink:href="#PretendardDILSemiBold-3455" transform="translate(6.91 0)"/></g></g><g id="text_26"><g style="fill: #0b0f1a" transform="translate(603.072 252.72) scale(1.728 -1.728)"><use xlink:href="#PretendardDILSemiBold-3707"/><use xlink:href="#PretendardDILSemiBold-3707" transform="translate(3.96 0)"/><use xlink:href="#PretendardDILSemiBold-3455" transform="translate(7.92 0)"/></g></g><g id="text_27"><g style="fill: #0b0f1a" transform="translate(34.56 295.2) scale(1.9584 -1.9584)"><defs><path id="PretendardDILSemiBold-3651" d="m26 283l108 0q30 0 51-9q21-10 31-26q10-17 10-39q0-16-6-28q-7-13-18-21q-11-7-25-11l0-3q15 0 29-9q14-9 22-24q9-15 9-36q0-22-11-40q-10-17-32-27q-22-10-53-10l-115 0l0 283zm107-240q18 0 29 4q12 5 18 14q5 8 5 20q0 13-6 23q-6 10-18 16q-11 6-27 6l-57 0l0-83l56 0zm-5 119q14 0 24 6q11 5 17 14q6 9 6 21q0 11-5 20q-5 8-15 13q-11 5-25 5l-53 0l0-79l51 0z" transform="scale(0.015625)"/><path id="PretendardDILSemiBold-3622" d="m129 37l-43 0l0 101l43 0l0-101zm131 0l-44 0l0 101l44 0l0-101zm75-29l-323 0l0 36l323 0l0-36zm-162 291q38 0 67-11q30-12 47-33q17-21 17-49q0-28-17-49q-17-21-47-32q-29-12-67-12q-38 0-68 12q-30 11-47 32q-17 21-17 49q0 28 17 49q17 21 47 33q30 11 68 11zm0-34q-27 0-47-7q-20-7-31-20q-11-14-11-32q0-18 11-31q11-14 31-21q20-7 47-7q26 0 46 7q20 7 31 21q11 13 11 31q0 18-11 31q-11 14-31 21q-20 7-46 7z" transform="scale(0.015625)"/><path id="PretendardDILSemiBold-34e4" d="m278 266l-226 0l0 35l226 0l0-35zm57-128l-323 0l0 36l323 0l0-36zm-40 136q0-31-2-55q-2-25-9-56l-44 1q6 22 8 41q2 19 3 34q1 14 1 35l0 27l43 0l0-27zm0-304l-245 0l0 127l245 0l0-127zm-202 35l158 0l0 58l-158 0l0-58z" transform="scale(0.015625)"/><path id="PretendardDILSemiBold-351c" d="m133 257q0-33-12-62q-11-29-34-51q-22-22-54-32l-22 34q27 9 47 27q19 17 29 39q10 22 10 45l0 26l36 0l0-26zm8 1q0-22 10-43q9-20 28-37q19-16 45-25l-21-34q-31 11-53 31q-22 21-33 49q-11 28-11 59l0 25l35 0l0-25zm136-63l-73 0l0 36l73 0l0-36zm-62 67l-191 0l0 35l191 0l0-35zm92-296l-43 0l0 90l-197 0l0 35l240 0l0-125zm0 142l-43 0l0 210l43 0l0-210z" transform="scale(0.015625)"/><path id="PretendardDILSemiBold-3635" d="m276 195l-72 0l0 35l72 0l0-35zm31-87l-43 0l0 210l43 0l0-210zm-119-8q38 0 65-8q27-8 41-23q15-15 15-37q0-21-15-36q-14-15-41-23q-27-8-65-8q-37 0-64 8q-27 8-42 23q-14 15-14 36q0 22 14 37q15 15 42 23q27 8 64 8zm0-34q-24 0-42-3q-17-4-26-12q-9-7-9-19q0-10 9-18q9-7 26-11q18-4 42-4q25 0 42 4q17 4 26 11q9 8 9 18q0 12-9 19q-9 8-26 12q-17 3-42 3zm-55 192q0-34-12-63q-11-30-34-52q-22-23-54-34l-22 35q27 10 47 27q20 18 29 40q10 23 10 47l0 25l36 0l0-25zm8 0q0-22 10-43q9-20 28-36q19-17 45-26l-21-34q-31 10-53 31q-22 21-33 49q-11 28-11 59l0 25l35 0l0-25zm74 2l-191 0l0 36l191 0l0-36z" transform="scale(0.015625)"/><path id="PretendardDILSemiBold-3614" d="m133 266q0-36-12-66q-11-30-34-53q-22-22-54-34l-24 35q29 10 49 28q20 17 30 40q9 24 9 50l0 33l36 0l0-33zm8 2q0-25 9-46q10-22 28-39q19-16 46-25l-23-34q-31 11-52 32q-21 21-32 49q-11 29-11 63l0 31l35 0l0-31zm166-157l-43 0l0 207l43 0l0-207zm-119-10q38 0 65-8q27-8 41-23q15-15 15-37q0-21-15-36q-14-15-41-23q-27-8-65-8q-37 0-64 8q-27 8-42 23q-14 15-14 36q0 22 14 37q15 15 42 23q27 8 64 8zm0-34q-24 0-42-3q-17-4-26-12q-9-8-9-19q0-10 9-18q9-7 26-11q18-4 42-4q25 0 42 4q17 4 26 11q9 8 9 18q0 11-9 19q-9 8-26 12q-17 3-42 3zm83 147l-77 0l0 36l77 0l0-36z" transform="scale(0.015625)"/><path id="PretendardDILSemiBold-3218" d="m33 47l65 65l-65 65l31 32l65-66l66 66l31-32l-66-65l66-65l-31-31l-66 65l-65-65l-31 31z" transform="scale(0.015625)"/><path id="PretendardDILSemiBold-36dc" d="m306-35l-44 0l0 353l44 0l0-353zm-191 328q27 0 48-16q21-15 32-43q12-28 12-66q0-38-12-66q-11-28-32-44q-21-15-48-15q-27 0-47 15q-21 16-33 44q-12 28-12 66q0 38 12 66q12 28 33 43q20 16 47 16zm0-39q-15 0-26-11q-11-10-18-29q-6-19-6-46q0-27 6-46q7-19 18-30q11-10 26-10q15 0 26 10q12 11 18 30q6 19 6 46q0 27-6 46q-6 19-17 29q-12 11-27 11z" transform="scale(0.015625)"/><path id="PretendardDILSemiBold-3623" d="m130 134l-43 0l0 65l43 0l0-65zm127 0l-43 0l0 65l43 0l0-65zm76-20l-321 0l0 35l321 0l0-35zm-161-22q39 0 66-7q27-7 42-21q15-14 15-35q0-20-15-34q-15-14-42-22q-27-7-66-7q-38 0-66 7q-28 8-42 22q-15 14-15 34q0 21 15 35q14 14 42 21q28 7 66 7zm0-32q-26 0-43-4q-17-3-27-10q-8-7-8-17q0-9 8-16q10-7 27-11q18-3 43-3q25 0 43 3q18 4 27 11q9 7 9 16q0 10-9 17q-9 7-27 10q-17 4-43 4zm1 253q38 0 67-8q29-9 44-24q15-15 15-35q0-21-15-36q-15-15-44-23q-28-8-67-8q-39 0-68 8q-29 8-44 23q-16 15-16 36q0 20 16 35q15 15 44 24q29 8 68 8zm0-34q-27 0-45-4q-19-4-28-11q-10-8-10-18q0-11 10-19q9-7 28-11q18-4 45-4q26 0 44 4q18 4 28 11q10 8 10 19q0 10-10 18q-10 7-28 11q-18 4-44 4z" transform="scale(0.015625)"/><path id="PretendardDILSemiBold-36d5" d="m307-34l-44 0l0 352l44 0l0-352zm-106 315q0-55-16-101q-15-46-52-85q-36-39-96-67l-23 35q51 24 83 55q31 31 46 69q15 39 15 86l0 8l43 0zm-23-35l-146 0l0 35l146 0l0-35z" transform="scale(0.015625)"/><path id="PretendardDILSemiBold-35eb" d="m290 64l-44 0l0 254l44 0l0-254zm50 117l-63 0l0 36l63 0l0-36zm-146 111q0-47-19-84q-20-38-57-65q-37-27-90-43l-18 35q44 12 75 33q31 20 47 46q16 27 16 56l0 22l46 0zm-22-36l-147 0l0 36l147 0l0-36zm132-284l-240 0l0 35l240 0l0-35zm-197 20l-43 0l0 98l43 0l0-98z" transform="scale(0.015625)"/></defs><use xlink:href="#PretendardDILSemiBold-3651"/><use xlink:href="#PretendardDILSemiBold-3724" transform="translate(3.94 0)"/><use xlink:href="#PretendardDILSemiBold-364f" transform="translate(5.64 0)"/><use xlink:href="#PretendardDILSemiBold-3622" transform="translate(7.13 0)"/><use xlink:href="#PretendardDILSemiBold-34e4" transform="translate(12.53 0)"/><use xlink:href="#PretendardDILSemiBold-364f" transform="translate(17.93 0)"/><use xlink:href="#PretendardDILSemiBold-351c" transform="translate(19.42 0)"/><use xlink:href="#PretendardDILSemiBold-3635" transform="translate(24.82 0)"/><use xlink:href="#PretendardDILSemiBold-3614" transform="translate(30.22 0)"/><use xlink:href="#PretendardDILSemiBold-364f" transform="translate(35.62 0)"/><use xlink:href="#PretendardDILSemiBold-3218" transform="translate(37.11 0)"/><use xlink:href="#PretendardDILSemiBold-364f" transform="translate(41.14 0)"/><use xlink:href="#PretendardDILSemiBold-36dc" transform="translate(42.62 0)"/><use xlink:href="#PretendardDILSemiBold-3623" transform="translate(48.02 0)"/><use xlink:href="#PretendardDILSemiBold-364f" transform="translate(53.43 0)"/><use xlink:href="#PretendardDILSemiBold-36d5" transform="translate(54.91 0)"/><use xlink:href="#PretendardDILSemiBold-35eb" transform="translate(60.31 0)"/><use xlink:href="#PretendardDILSemiBold-374c" transform="translate(65.71 0)"/><use xlink:href="#PretendardDILSemiBold-3455" transform="translate(68.05 0)"/><use xlink:href="#PretendardDILSemiBold-374d" transform="translate(73.84 0)"/></g></g><g id="text_28"><g style="fill: #6b7280" transform="translate(34.56 318.24) scale(1.728 -1.728)"><defs><path id="PretendardDILSemiBold-35f3" d="m273 262l-223 0l0 35l223 0l0-35zm60-151l-321 0l0 35l321 0l0-35zm-140-146l-44 0l0 157l44 0l0-157zm101 300q0-26-1-44q0-19-3-43q-3-24-10-53l-43 5q7 27 10 51q3 23 3 42q1 18 1 42l0 32l43 0l0-32z" transform="scale(0.015625)"/></defs><use xlink:href="#PretendardDILSemiBold-35f3"/><use xlink:href="#PretendardDILSemiBold-3504" transform="translate(5.4 0)"/></g></g><g id="text_29"><g style="fill: #6b7280" transform="translate(367.673063 318.24) scale(1.728 -1.728)"><defs><path id="PretendardDILSemiBold-34e8" d="m307 58l-43 0l0 260l43 0l0-260zm-28 184l-107 0l0 34l107 0l0-34zm37-270l-241 0l0 35l241 0l0-35zm-197 18l-44 0l0 91l44 0l0-91zm-44 138l-43 0l0 167l43 0l0-167zm-15 14q42 0 77 2q36 3 73 10l4-36q-38-7-74-9q-36-3-80-3l-28 0l0 36l28 0zm219 34l-107 0l0 34l107 0l0-34z" transform="scale(0.015625)"/><path id="PretendardDILSemiBold-360a" d="m198 51l-168 0l0 234l168 0l0-234zm-125 35l83 0l0 165l-83 0l0-165zm233-121l-44 0l0 353l44 0l0-353z" transform="scale(0.015625)"/><path id="PretendardDILSemiBold-3603" d="m191 121l-167 0l0 167l167 0l0-167zm-124 34l81 0l0 98l-81 0l0-98zm223-95l-43 0l0 258l43 0l0-258zm50 119l-63 0l0 36l63 0l0-36zm-36-207l-240 0l0 35l240 0l0-35zm-197 19l-43 0l0 95l43 0l0-95z" transform="scale(0.015625)"/></defs><use xlink:href="#PretendardDILSemiBold-3702"/><use xlink:href="#PretendardDILSemiBold-34e8" transform="translate(2.87 0)"/><use xlink:href="#PretendardDILSemiBold-364f" transform="translate(8.27 0)"/><use xlink:href="#PretendardDILSemiBold-360a" transform="translate(9.76 0)"/><use xlink:href="#PretendardDILSemiBold-3603" transform="translate(15.16 0)"/></g></g><g id="text_30"><g style="fill: #6b7280" transform="translate(503.657437 318.24) scale(1.728 -1.728)"><defs><path id="PretendardDILSemiBold-3743" d="m193 97l-195 0l0 41l195 0l0-41z" transform="scale(0.015625)"/></defs><use xlink:href="#PretendardDILSemiBold-3702"/><use xlink:href="#PretendardDILSemiBold-3743" transform="translate(2.87 0)"/><use xlink:href="#PretendardDILSemiBold-3704" transform="translate(5.85 0)"/><use xlink:href="#PretendardDILSemiBold-34e8" transform="translate(9.8 0)"/></g></g><g id="text_31"><g style="fill: #6b7280" transform="translate(619.246688 318.24) scale(1.728 -1.728)"><defs><path id="PretendardDILSemiBold-3611" d="m129 266q0-35-11-65q-12-30-34-53q-21-22-53-33l-23 34q28 10 47 27q19 18 29 41q9 24 9 49l0 34l36 0l0-34zm8-4q0-22 9-43q10-20 29-36q18-16 45-25l-24-33q-29 10-51 30q-21 21-32 48q-11 28-11 59l0 38l35 0l0-38zm153-155l-43 0l0 211l43 0l0-211zm50 89l-62 0l0 37l62 0l0-37zm-165-97q37 0 63-7q27-8 41-23q15-15 15-36q0-21-15-36q-14-16-41-23q-26-8-63-8q-36 0-63 8q-27 7-42 23q-14 15-14 36q0 21 14 36q15 15 42 23q27 7 63 7zm0-34q-24 0-41-3q-17-4-26-12q-9-7-9-17q0-11 9-18q9-8 26-11q17-4 41-4q25 0 42 4q17 3 25 11q9 7 9 18q0 10-9 18q-9 7-26 11q-17 3-41 3z" transform="scale(0.015625)"/></defs><use xlink:href="#PretendardDILSemiBold-3704"/><use xlink:href="#PretendardDILSemiBold-34e8" transform="translate(3.95 0)"/><use xlink:href="#PretendardDILSemiBold-364f" transform="translate(9.35 0)"/><use xlink:href="#PretendardDILSemiBold-36dc" transform="translate(10.84 0)"/><use xlink:href="#PretendardDILSemiBold-3611" transform="translate(16.24 0)"/></g></g><g id="text_32"><g style="fill: #1f2937" transform="translate(34.56 339.84) scale(1.728 -1.728)"><use xlink:href="#PretendardDILRegular-360f"/><use xlink:href="#PretendardDILRegular-3635" transform="translate(5.4 0)"/></g></g><g id="text_33"><g style="fill: #1f2937" transform="translate(389.505938 339.84) scale(1.728 -1.728)"><defs><path id="PretendardDILBold-3705" d="m18 96l119 187l40 0l0-65l-24 0l-76-118l0-3l170 0l0-47l-229 0l0 46zm137-32l1 21l0 198l55 0l0-283l-56 0l0 64z" transform="scale(0.015625)"/><path id="PretendardDILBold-3703" d="m22 42l102 94q15 14 23 24q9 9 13 19q4 10 4 21q0 12-6 21q-5 9-16 14q-10 5-23 5q-13 0-23-5q-10-5-15-16q-6-10-6-23l-55 0q0 27 12 48q13 20 36 32q22 11 52 11q30 0 53-11q23-10 35-29q13-19 13-44q0-16-7-32q-6-15-22-34q-16-19-45-45l-43-42l0-2l121 0l0-48l-203 0l0 42z" transform="scale(0.015625)"/></defs><use xlink:href="#PretendardDILBold-3705"/><use xlink:href="#PretendardDILBold-3703" transform="translate(4.11 0)"/></g></g><g id="text_34"><g style="fill: #1f2937" transform="translate(516.958312 339.84) scale(1.728 -1.728)"><defs><path id="PretendardDILRegular-370a" d="m121 287q27 0 50-13q23-12 38-42q14-30 14-79q0-50-12-85q-13-35-38-54q-24-18-57-18q-24 0-44 10q-19 9-32 26q-12 17-16 40l35 0q3-13 11-23q7-10 19-16q12-6 27-6q23 0 40 13q17 13 26 38q9 24 9 58l-4 0q-9-12-20-20q-11-9-24-13q-14-5-29-5q-25 0-46 13q-21 12-34 33q-12 21-12 48q0 26 12 48q12 22 35 34q22 13 52 13zm0-31q-18 0-33-9q-15-8-23-23q-9-15-9-32q0-17 8-31q9-15 23-23q15-9 33-9q18 0 32 9q16 9 24 24q9 15 9 31q0 16-8 31q-9 14-23 23q-15 9-33 9z" transform="scale(0.015625)"/></defs><use xlink:href="#PretendardDILRegular-3703"/><use xlink:href="#PretendardDILRegular-370a" transform="translate(3.67 0)"/></g></g><g id="text_35"><g style="fill: #1f2937" transform="translate(645.566625 339.84) scale(1.728 -1.728)"><defs><path id="PretendardDILRegular-3702" d="m127 0l-36 0l0 246l-2 0l-68-46l0 36l70 47l36 0l0-283z" transform="scale(0.015625)"/></defs><use xlink:href="#PretendardDILRegular-3703"/><use xlink:href="#PretendardDILRegular-3702" transform="translate(3.67 0)"/></g></g><g id="text_36"><g style="fill: #1f2937" transform="translate(34.56 361.44) scale(1.728 -1.728)"><use xlink:href="#PretendardDILRegular-30ca"/><use xlink:href="#PretendardDILRegular-3635" transform="translate(5.4 0)"/></g></g><g id="text_37"><g style="fill: #1f2937" transform="translate(390.099938 361.44) scale(1.728 -1.728)"><defs><path id="PretendardDILRegular-3704" d="m124-4q-28 0-50 9q-22 10-34 27q-13 17-14 39l35 0q1-13 10-23q8-10 22-15q14-6 31-6q18 0 33 7q15 6 23 17q8 11 8 26q0 16-8 27q-8 12-23 19q-16 7-37 7l-24 0l0 31l24 0q17 0 30 6q13 6 20 17q8 11 8 25q0 14-7 25q-6 11-18 16q-12 6-28 6q-15 0-29-5q-13-6-21-16q-9-10-9-23l-34 0q1 22 14 39q12 17 33 26q21 10 46 10q27 0 46-10q20-11 31-28q10-17 10-38q0-16-6-29q-6-13-17-22q-11-9-25-13l0-2q18-3 31-12q14-10 21-24q7-14 7-32q0-23-13-41q-13-19-35-29q-23-11-51-11z" transform="scale(0.015625)"/></defs><use xlink:href="#PretendardDILRegular-3704"/><use xlink:href="#PretendardDILRegular-3701" transform="translate(3.86 0)"/></g></g><g id="text_38"><g style="fill: #1f2937" transform="translate(518.445 361.44) scale(1.728 -1.728)"><use xlink:href="#PretendardDILRegular-3705"/><use xlink:href="#PretendardDILRegular-3702" transform="translate(3.9 0)"/></g></g><g id="text_39"><g style="fill: #1f2937" transform="translate(643.350937 361.44) scale(1.728 -1.728)"><use xlink:href="#PretendardDILRegular-3705"/><use xlink:href="#PretendardDILRegular-3709" transform="translate(3.9 0)"/></g></g><g id="text_40"><g style="fill: #1f2937" transform="translate(34.56 383.04) scale(1.728 -1.728)"><use xlink:href="#PretendardDILRegular-3696"/></g></g><g id="text_41"><g style="fill: #1f2937" transform="translate(383.803875 383.04) scale(1.728 -1.728)"><defs><path id="PretendardDILRegular-3707" d="m125-4q-27 0-50 13q-23 13-38 42q-15 30-15 79q0 50 13 85q13 35 37 54q24 18 57 18q25 0 44-10q20-9 32-26q13-17 16-39l-35 0q-3 13-11 23q-7 10-19 15q-11 6-27 6q-23 0-39-13q-17-13-26-37q-9-24-9-58l4 0q8 11 19 20q11 8 25 13q13 4 28 4q25 0 47-12q21-12 33-33q12-22 12-49q0-26-12-48q-12-22-35-34q-22-13-51-13zm0 31q18 0 33 9q14 8 23 23q8 15 8 32q0 18-8 32q-8 15-22 23q-15 8-33 8q-18 0-33-8q-15-9-24-24q-9-15-9-31q0-17 8-31q9-15 24-24q15-9 33-9z" transform="scale(0.015625)"/></defs><use xlink:href="#PretendardDILRegular-3703"/><use xlink:href="#PretendardDILRegular-3707" transform="translate(3.67 0)"/><use xlink:href="#PretendardDILRegular-3701" transform="translate(7.5 0)"/></g></g><g id="text_42"><g style="fill: #1f2937" transform="translate(512.084812 383.04) scale(1.728 -1.728)"><use xlink:href="#PretendardDILRegular-3704"/><use xlink:href="#PretendardDILRegular-3702" transform="translate(3.86 0)"/><use xlink:href="#PretendardDILRegular-3701" transform="translate(6.6 0)"/></g></g><g id="text_43"><g style="fill: #1f2937" transform="translate(637.201687 383.04) scale(1.728 -1.728)"><use xlink:href="#PretendardDILRegular-3703"/><use xlink:href="#PretendardDILRegular-3704" transform="translate(3.67 0)"/><use xlink:href="#PretendardDILRegular-3701" transform="translate(7.53 0)"/></g></g><g id="text_44"><g style="fill: #475569" transform="translate(573.456937 53.28) scale(1.728 -1.728)"><defs><path id="PretendardDILSemiBold-31eb" d="m314 112l-42 0l0 206l42 0l0-206zm-27 87l-61 0l0 35l61 0l0-35zm-50-83l-40 0l0 196l40 0l0-196zm77-146l-239 0l0 127l239 0l0-127zm-195 35l152 0l0 57l-152 0l0-57zm-5 251q0-29-9-56q-9-28-28-50q-18-21-45-33l-23 34q23 11 39 27q16 17 24 37q8 20 8 41l0 42l34 0l0-42zm8 0q0-20 8-39q8-18 23-33q15-15 38-23l-23-33q-27 10-45 30q-17 19-26 44q-9 25-9 54l0 42l34 0l0-42z" transform="scale(0.015625)"/><path id="PretendardDILSemiBold-3532" d="m304 275l-263 0l0 33l263 0l0-33zm-2-86l-259 0l0 33l259 0l0-33zm-169 11l-44 0l0 95l44 0l0-95zm122 0l-43 0l0 95l43 0l0-95zm78-68l-321 0l0 35l321 0l0-35zm-39-107l-201 0l0-37l-43 0l0 67l201 0l0 22l-201 0l0 31l244 0l0-83zm9-57l-253 0l0 33l253 0l0-33z" transform="scale(0.015625)"/><path id="PretendardDILSemiBold-372c" d="m55 94q-9 0-16 4q-7 4-11 11q-4 7-4 15q0 8 4 15q4 7 11 11q7 4 16 4q7 0 15-4q7-4 11-11q4-7 4-15q0-8-4-15q-4-7-11-11q-8-4-15-4z" transform="scale(0.015625)"/><path id="PretendardDILSemiBold-3645" d="m290 112l-43 0l0 206l43 0l0-206zm50 83l-67 0l0 36l67 0l0-36zm-235-127l142 0l0 30l43 0l0-128l-228 0l0 128l43 0l0-30zm142-64l0 30l-142 0l0-30l142 0zm-25 247l-210 0l0 34l210 0l0-34zm-105-12q25 0 45-8q19-8 30-22q11-14 11-32q0-19-11-33q-11-14-30-22q-20-8-45-8q-26 0-45 8q-20 8-31 22q-11 14-11 33q0 18 11 32q11 14 31 22q19 8 45 8zm0-33q-13 1-24-3q-10-4-15-11q-6-6-6-15q0-10 6-17q5-6 15-10q11-4 24-4q13 0 23 4q11 4 16 10q6 7 6 17q0 9-6 16q-6 6-16 10q-10 4-23 3zm22 60l-44 0l0 55l44 0l0-55z" transform="scale(0.015625)"/><path id="PretendardDILSemiBold-34ef" d="m316-34l-42 0l0 352l42 0l0-352zm-96 186l-86 0l0 35l86 0l0-35zm22-170l-40 0l0 329l40 0l0-329zm-195 100q42 0 70 2q27 2 55 8l4-36q-28-6-57-8q-28-2-72-2l-24 0l0 36l24 0zm111 160l-92 0l0-175l-43 0l0 210l135 0l0-35z" transform="scale(0.015625)"/><path id="PretendardDILSemiBold-3640" d="m308-35l-43 0l0 353l43 0l0-353zm-38 191l-72 0l0 35l72 0l0-35zm-214-74q50 0 84 2q35 2 71 7l4-35q-37-5-73-7q-36-3-86-3l-28 0l0 36l28 0zm137 171l-121 0l0-183l-44 0l0 218l165 0l0-35zm-14-98l-118 0l0 34l118 0l0-34z" transform="scale(0.015625)"/></defs><use xlink:href="#PretendardDILSemiBold-31eb"/><use xlink:href="#PretendardDILSemiBold-3532" transform="translate(5.4 0)"/><use xlink:href="#PretendardDILSemiBold-364f" transform="translate(10.8 0)"/><use xlink:href="#PretendardDILSemiBold-372c" transform="translate(12.29 0)"/><use xlink:href="#PretendardDILSemiBold-364f" transform="translate(13.99 0)"/><use xlink:href="#PretendardDILSemiBold-3645" transform="translate(15.48 0)"/><use xlink:href="#PretendardDILSemiBold-3614" transform="translate(20.88 0)"/><use xlink:href="#PretendardDILSemiBold-364f" transform="translate(26.28 0)"/><use xlink:href="#PretendardDILSemiBold-34ef" transform="translate(27.77 0)"/><use xlink:href="#PretendardDILSemiBold-36dc" transform="translate(33.17 0)"/><use xlink:href="#PretendardDILSemiBold-3640" transform="translate(38.57 0)"/></g></g></g></g><defs><clipPath id="pa6bc4535b7"><rect x="0" y="0" width="691.2" height="460.8"/></clipPath></defs></svg>
